<?xml version="1.0" encoding="UTF-8" standalone="no"?>
<svg
   width="2500"
   height="3330"
   viewBox="0 0 2500 3330"
   version="1.1"
   id="svg1"
   xml:space="preserve"
   sodipodi:docname="wall_foot.svg"
   inkscape:version="1.4.2 (ebf0e940, 2025-05-08)"
   xmlns:inkscape="http://www.inkscape.org/namespaces/inkscape"
   xmlns:sodipodi="http://sodipodi.sourceforge.net/DTD/sodipodi-0.dtd"
   xmlns="http://www.w3.org/2000/svg"
   xmlns:svg="http://www.w3.org/2000/svg"><sodipodi:namedview
   id="namedview1"
   pagecolor="#ffffff"
   bordercolor="#666666"
   borderopacity="1.0"
   inkscape:showpageshadow="2"
   inkscape:pageopacity="0.0"
   inkscape:pagecheckerboard="0"
   inkscape:deskcolor="#d1d1d1"
   inkscape:zoom="0.28365137"
   inkscape:cx="1207.4682"
   inkscape:cy="2591.2091"
   inkscape:window-width="1920"
   inkscape:window-height="1119"
   inkscape:window-x="0"
   inkscape:window-y="25"
   inkscape:window-maximized="0"
   inkscape:current-layer="svg1" /><path
   id="path1-90-1-8"
   style="fill:#e6e6e6;fill-opacity:0.625;stroke:#ff0000;stroke-width:2;stroke-linecap:square"
   d="M 2490.2965,2393.72 A 34.877762,34.877762 0 0 1 2455.4187,2428.5977 34.877762,34.877762 0 0 1 2420.5409,2393.72 34.877762,34.877762 0 0 1 2455.4187,2358.8422 34.877762,34.877762 0 0 1 2490.2965,2393.72 Z" />
   <defs
   id="defs1"><style
     id="style1">
      .hold {
        fill: #cccccc;
        stroke: #333333;
        stroke-width: 2;
        cursor: pointer;
      }
      .hold:hover {
        fill: #aaaaaa;
      }
    </style></defs>
   
   
   
   
   
   
   
   
   
   
   
   
   
   
   
   
   
   
   
   
   
   
   
   
   
   
   
   
   
   
   
   
   
   
   
   
   
   
   
   
   
   
   
   
   
   
   
   
   
   
   
   
   
   
   
   
   
   
   
   
   
   
   
   
   
   
   
   
   
   
   
   
   
   
   
   
   
   
   
   
   
   
   
   
   
   
   
   
   
   
   
   
   
   
   
   
   
   
   
   
   
   
   
   
   
   
   
   
   
   
   
   
   
   
   
   
   
   
   
   
   
   
   
   
   
   
   
   
   
   
   
   
   
   
   
   
   
   
   
   
   
   
<path
   id="path1"
   style="fill:#e6e6e6;fill-opacity:0.625;stroke:#ff0000;stroke-width:2;stroke-linecap:square"
   d="M 77.229332,2999.4177 A 34.877762,34.877762 0 0 1 42.35157,3034.2955 34.877762,34.877762 0 0 1 7.4738083,2999.4177 34.877762,34.877762 0 0 1 42.35157,2964.54 34.877762,34.877762 0 0 1 77.229332,2999.4177 Z" /><path
   id="path1-0"
   style="fill:#e6e6e6;fill-opacity:0.625;stroke:#ff0000;stroke-width:2;stroke-linecap:square"
   d="M 381.79277,3307.8777 A 34.877762,34.877762 0 0 1 346.91501,3342.7554 34.877762,34.877762 0 0 1 312.03725,3307.8777 34.877762,34.877762 0 0 1 346.91501,3272.9999 34.877762,34.877762 0 0 1 381.79277,3307.8777 Z" /><path
   id="path1-0-3"
   style="fill:#e6e6e6;fill-opacity:0.625;stroke:#ff0000;stroke-width:2;stroke-linecap:square"
   d="M 80.440479,3307.8777 A 34.877762,34.877762 0 0 1 45.562717,3342.7554 34.877762,34.877762 0 0 1 10.684956,3307.8777 34.877762,34.877762 0 0 1 45.562717,3272.9999 34.877762,34.877762 0 0 1 80.440479,3307.8777 Z" /><path
   id="path1-1"
   style="fill:#e6e6e6;fill-opacity:0.625;stroke:#ff0000;stroke-width:2;stroke-linecap:square"
   d="M 677.66585,3307.8777 A 34.877762,34.877762 0 0 1 642.78809,3342.7554 34.877762,34.877762 0 0 1 607.91032,3307.8777 34.877762,34.877762 0 0 1 642.78809,3272.9999 34.877762,34.877762 0 0 1 677.66585,3307.8777 Z" /><path
   id="path1-15"
   style="fill:#e6e6e6;fill-opacity:0.625;stroke:#ff0000;stroke-width:2;stroke-linecap:square"
   d="M 973.72523,3307.8777 A 34.877762,34.877762 0 0 1 938.84747,3342.7554 34.877762,34.877762 0 0 1 903.96971,3307.8777 34.877762,34.877762 0 0 1 938.84747,3272.9999 34.877762,34.877762 0 0 1 973.72523,3307.8777 Z" /><path
   id="path1-8"
   style="fill:#e6e6e6;fill-opacity:0.625;stroke:#ff0000;stroke-width:2;stroke-linecap:square"
   d="M 1275.2689,3307.8777 A 34.877762,34.877762 0 0 1 1240.3911,3342.7554 34.877762,34.877762 0 0 1 1205.5134,3307.8777 34.877762,34.877762 0 0 1 1240.3911,3272.9999 34.877762,34.877762 0 0 1 1275.2689,3307.8777 Z" /><path
   id="path1-9"
   style="fill:#e6e6e6;fill-opacity:0.625;stroke:#ff0000;stroke-width:2;stroke-linecap:square"
   d="M 1584.2119,3307.8777 A 34.877762,34.877762 0 0 1 1549.3341,3342.7554 34.877762,34.877762 0 0 1 1514.4563,3307.8777 34.877762,34.877762 0 0 1 1549.3341,3272.9999 34.877762,34.877762 0 0 1 1584.2119,3307.8777 Z" /><path
   id="path1-5"
   style="fill:#e6e6e6;fill-opacity:0.625;stroke:#ff0000;stroke-width:2;stroke-linecap:square"
   d="M 1884.7556,3307.8777 A 34.877762,34.877762 0 0 1 1849.8778,3342.7554 34.877762,34.877762 0 0 1 1815,3307.8777 34.877762,34.877762 0 0 1 1849.8778,3272.9999 34.877762,34.877762 0 0 1 1884.7556,3307.8777 Z" /><path
   id="path1-2"
   style="fill:#e6e6e6;fill-opacity:0.625;stroke:#ff0000;stroke-width:2;stroke-linecap:square"
   d="M 2189.4737,3307.8777 A 34.877762,34.877762 0 0 1 2154.5959,3342.7554 34.877762,34.877762 0 0 1 2119.7182,3307.8777 34.877762,34.877762 0 0 1 2154.5959,3272.9999 34.877762,34.877762 0 0 1 2189.4737,3307.8777 Z" /><path
   id="path1-0-7"
   style="fill:#e6e6e6;fill-opacity:0.625;stroke:#ff0000;stroke-width:2;stroke-linecap:square"
   d="M 380.10637,2705.196 A 34.877762,34.877762 0 0 1 345.22861,2740.0738 34.877762,34.877762 0 0 1 310.35085,2705.196 34.877762,34.877762 0 0 1 345.22861,2670.3183 34.877762,34.877762 0 0 1 380.10637,2705.196 Z" /><path
   id="path1-15-3"
   style="fill:#e6e6e6;fill-opacity:0.625;stroke:#ff0000;stroke-width:2;stroke-linecap:square"
   d="M 984.03889,2705.196 A 34.877762,34.877762 0 0 1 949.16113,2740.0738 34.877762,34.877762 0 0 1 914.28337,2705.196 34.877762,34.877762 0 0 1 949.16113,2670.3183 34.877762,34.877762 0 0 1 984.03889,2705.196 Z" /><path
   id="path1-9-8"
   style="fill:#e6e6e6;fill-opacity:0.625;stroke:#ff0000;stroke-width:2;stroke-linecap:square"
   d="M 1584.5255,2705.196 A 34.877762,34.877762 0 0 1 1549.6477,2740.0738 34.877762,34.877762 0 0 1 1514.7699,2705.196 34.877762,34.877762 0 0 1 1549.6477,2670.3183 34.877762,34.877762 0 0 1 1584.5255,2705.196 Z" /><path
   id="path1-2-4"
   style="fill:#e6e6e6;fill-opacity:0.625;stroke:#ff0000;stroke-width:2;stroke-linecap:square"
   d="M 2199.7874,2705.196 A 34.877762,34.877762 0 0 1 2164.9097,2740.0738 34.877762,34.877762 0 0 1 2130.0319,2705.196 34.877762,34.877762 0 0 1 2164.9097,2670.3183 34.877762,34.877762 0 0 1 2199.7874,2705.196 Z" /><path
   id="path1-0-0"
   style="fill:#e6e6e6;fill-opacity:0.625;stroke:#ff0000;stroke-width:2;stroke-linecap:square"
   d="M 381.51692,2094.6714 A 34.877762,34.877762 0 0 1 346.63916,2129.5491 34.877762,34.877762 0 0 1 311.7614,2094.6714 34.877762,34.877762 0 0 1 346.63916,2059.7936 34.877762,34.877762 0 0 1 381.51692,2094.6714 Z" /><path
   id="path1-15-9"
   style="fill:#e6e6e6;fill-opacity:0.625;stroke:#ff0000;stroke-width:2;stroke-linecap:square"
   d="M 985.44942,2094.6714 A 34.877762,34.877762 0 0 1 950.57166,2129.5491 34.877762,34.877762 0 0 1 915.69389,2094.6714 34.877762,34.877762 0 0 1 950.57166,2059.7936 34.877762,34.877762 0 0 1 985.44942,2094.6714 Z" /><path
   id="path1-15-9-0"
   style="fill:#e6e6e6;fill-opacity:0.625;stroke:#ff0000;stroke-width:2;stroke-linecap:square"
   d="M 1079.2661,1907.2841 A 34.877762,34.877762 0 0 1 1044.3883,1942.1618 34.877762,34.877762 0 0 1 1009.5105,1907.2841 34.877762,34.877762 0 0 1 1044.3883,1872.4063 34.877762,34.877762 0 0 1 1079.2661,1907.2841 Z" /><path
   id="path1-15-9-6"
   style="fill:#e6e6e6;fill-opacity:0.625;stroke:#ff0000;stroke-width:2;stroke-linecap:square"
   d="M 984.8011,1692.4128 A 34.877762,34.877762 0 0 1 949.92334,1727.2906 34.877762,34.877762 0 0 1 915.04558,1692.4128 34.877762,34.877762 0 0 1 949.92334,1657.5351 34.877762,34.877762 0 0 1 984.8011,1692.4128 Z" /><path
   id="path1-15-9-9"
   style="fill:#e6e6e6;fill-opacity:0.625;stroke:#ff0000;stroke-width:2;stroke-linecap:square"
   d="M 1597.5654,1685.1061 A 34.877762,34.877762 0 0 1 1562.6876,1719.9838 34.877762,34.877762 0 0 1 1527.8099,1685.1061 34.877762,34.877762 0 0 1 1562.6876,1650.2283 34.877762,34.877762 0 0 1 1597.5654,1685.1061 Z" /><path
   id="path1-15-9-3"
   style="fill:#e6e6e6;fill-opacity:0.625;stroke:#ff0000;stroke-width:2;stroke-linecap:square"
   d="M 1484.7596,1894.6001 A 34.877762,34.877762 0 0 1 1449.8818,1929.4779 34.877762,34.877762 0 0 1 1415.0041,1894.6001 34.877762,34.877762 0 0 1 1449.8818,1859.7223 34.877762,34.877762 0 0 1 1484.7596,1894.6001 Z" /><path
   id="path1-15-9-8"
   style="fill:#e6e6e6;fill-opacity:0.625;stroke:#ff0000;stroke-width:2;stroke-linecap:square"
   d="M 579.4402,1878.4088 A 34.877762,34.877762 0 0 1 544.56244,1913.2866 34.877762,34.877762 0 0 1 509.68468,1878.4088 34.877762,34.877762 0 0 1 544.56244,1843.5311 34.877762,34.877762 0 0 1 579.4402,1878.4088 Z" /><path
   id="path1-15-9-61"
   style="fill:#e6e6e6;fill-opacity:0.625;stroke:#ff0000;stroke-width:2;stroke-linecap:square"
   d="M 276.32411,1596.1805 A 34.877762,34.877762 0 0 1 241.44635,1631.0583 34.877762,34.877762 0 0 1 206.56859,1596.1805 34.877762,34.877762 0 0 1 241.44635,1561.3028 34.877762,34.877762 0 0 1 276.32411,1596.1805 Z" /><path
   id="path1-15-9-96"
   style="fill:#e6e6e6;fill-opacity:0.625;stroke:#ff0000;stroke-width:2;stroke-linecap:square"
   d="M 85.518745,1781.2142 A 34.877762,34.877762 0 0 1 50.640984,1816.092 34.877762,34.877762 0 0 1 15.763222,1781.2142 34.877762,34.877762 0 0 1 50.640984,1746.3365 34.877762,34.877762 0 0 1 85.518745,1781.2142 Z" /><path
   id="path1-15-9-4"
   style="fill:#e6e6e6;fill-opacity:0.625;stroke:#ff0000;stroke-width:2;stroke-linecap:square"
   d="M 884.3907,1291.2512 A 34.877762,34.877762 0 0 1 849.51294,1326.129 34.877762,34.877762 0 0 1 814.63518,1291.2512 34.877762,34.877762 0 0 1 849.51294,1256.3735 34.877762,34.877762 0 0 1 884.3907,1291.2512 Z" /><path
   id="path1-15-9-1"
   style="fill:#e6e6e6;fill-opacity:0.625;stroke:#ff0000;stroke-width:2;stroke-linecap:square"
   d="M 1691.1784,1285.9108 A 34.877762,34.877762 0 0 1 1656.3007,1320.7885 34.877762,34.877762 0 0 1 1621.4229,1285.9108 34.877762,34.877762 0 0 1 1656.3007,1251.033 34.877762,34.877762 0 0 1 1691.1784,1285.9108 Z" /><path
   id="path1-15-9-43"
   style="fill:#e6e6e6;fill-opacity:0.625;stroke:#ff0000;stroke-width:2;stroke-linecap:square"
   d="M 1992.7469,1892.2802 A 34.877762,34.877762 0 0 1 1957.8691,1927.1579 34.877762,34.877762 0 0 1 1922.9914,1892.2802 34.877762,34.877762 0 0 1 1957.8691,1857.4024 34.877762,34.877762 0 0 1 1992.7469,1892.2802 Z" /><path
   id="path1-15-9-2"
   style="fill:#e6e6e6;fill-opacity:0.625;stroke:#ff0000;stroke-width:2;stroke-linecap:square"
   d="M 2488.64,1782.2802 A 34.877762,34.877762 0 0 1 2453.7622,1817.1579 34.877762,34.877762 0 0 1 2418.8844,1782.2802 34.877762,34.877762 0 0 1 2453.7622,1747.4024 34.877762,34.877762 0 0 1 2488.64,1782.2802 Z" /><path
   id="path1-15-9-99"
   style="fill:#e6e6e6;fill-opacity:0.625;stroke:#ff0000;stroke-width:2;stroke-linecap:square"
   d="M 2286.5186,1590.2551 A 34.877762,34.877762 0 0 1 2251.6409,1625.1329 34.877762,34.877762 0 0 1 2216.7631,1590.2551 34.877762,34.877762 0 0 1 2251.6409,1555.3774 34.877762,34.877762 0 0 1 2286.5186,1590.2551 Z" /><path
   id="path1-9-80"
   style="fill:#e6e6e6;fill-opacity:0.625;stroke:#ff0000;stroke-width:2;stroke-linecap:square"
   d="M 1589.936,2100.6714 A 34.877762,34.877762 0 0 1 1555.0582,2135.5491 34.877762,34.877762 0 0 1 1520.1805,2100.6714 34.877762,34.877762 0 0 1 1555.0582,2065.7936 34.877762,34.877762 0 0 1 1589.936,2100.6714 Z" /><path
   id="path1-2-5"
   style="fill:#e6e6e6;fill-opacity:0.625;stroke:#ff0000;stroke-width:2;stroke-linecap:square"
   d="M 2201.1978,2094.6714 A 34.877762,34.877762 0 0 1 2166.3201,2129.5491 34.877762,34.877762 0 0 1 2131.4423,2094.6714 34.877762,34.877762 0 0 1 2166.3201,2059.7936 34.877762,34.877762 0 0 1 2201.1978,2094.6714 Z" /><path
   id="path1-90"
   style="fill:#e6e6e6;fill-opacity:0.625;stroke:#ff0000;stroke-width:2;stroke-linecap:square"
   d="M 2471.7601,3307.8777 A 34.877762,34.877762 0 0 1 2436.8823,3342.7554 34.877762,34.877762 0 0 1 2402.0046,3307.8777 34.877762,34.877762 0 0 1 2436.8823,3272.9999 34.877762,34.877762 0 0 1 2471.7601,3307.8777 Z" /><path
   id="path1-1-4"
   style="fill:#e6e6e6;fill-opacity:0.625;stroke:#ff0000;stroke-width:2;stroke-linecap:square"
   d="M 675.28127,2991.8782 A 34.877762,34.877762 0 0 1 640.4035,3026.7559 34.877762,34.877762 0 0 1 605.52574,2991.8782 34.877762,34.877762 0 0 1 640.4035,2957.0004 34.877762,34.877762 0 0 1 675.28127,2991.8782 Z" /><path
   id="path1-8-5"
   style="fill:#e6e6e6;fill-opacity:0.625;stroke:#ff0000;stroke-width:2;stroke-linecap:square"
   d="M 1276.8842,2991.8782 A 34.877762,34.877762 0 0 1 1242.0065,3026.7559 34.877762,34.877762 0 0 1 1207.1287,2991.8782 34.877762,34.877762 0 0 1 1242.0065,2957.0004 34.877762,34.877762 0 0 1 1276.8842,2991.8782 Z" /><path
   id="path1-5-1"
   style="fill:#e6e6e6;fill-opacity:0.625;stroke:#ff0000;stroke-width:2;stroke-linecap:square"
   d="M 1880.371,2991.8782 A 34.877762,34.877762 0 0 1 1845.4933,3026.7559 34.877762,34.877762 0 0 1 1810.6155,2991.8782 34.877762,34.877762 0 0 1 1845.4933,2957.0004 34.877762,34.877762 0 0 1 1880.371,2991.8782 Z" /><path
   id="path1-90-1"
   style="fill:#e6e6e6;fill-opacity:0.625;stroke:#ff0000;stroke-width:2;stroke-linecap:square"
   d="M 2487.3753,2987.8782 A 34.877762,34.877762 0 0 1 2452.4976,3022.7559 34.877762,34.877762 0 0 1 2417.6198,2987.8782 34.877762,34.877762 0 0 1 2452.4976,2953.0004 34.877762,34.877762 0 0 1 2487.3753,2987.8782 Z" /><path
   id="path1-3"
   style="fill:#e6e6e6;fill-opacity:0.625;stroke:#ff0000;stroke-width:2;stroke-linecap:square"
   d="M 82.150478,2393.7199 A 34.877762,34.877762 0 0 1 47.272717,2428.5977 34.877762,34.877762 0 0 1 12.394955,2393.7199 34.877762,34.877762 0 0 1 47.272717,2358.8422 34.877762,34.877762 0 0 1 82.150478,2393.7199 Z" /><path
   id="path1-1-4-4"
   style="fill:#e6e6e6;fill-opacity:0.625;stroke:#ff0000;stroke-width:2;stroke-linecap:square"
   d="M 678.20235,2393.72 A 34.877762,34.877762 0 0 1 643.32458,2428.5977 34.877762,34.877762 0 0 1 608.44682,2393.72 34.877762,34.877762 0 0 1 643.32458,2358.8422 34.877762,34.877762 0 0 1 678.20235,2393.72 Z" /><path
   id="path1-8-5-7"
   style="fill:#e6e6e6;fill-opacity:0.625;stroke:#ff0000;stroke-width:2;stroke-linecap:square"
   d="M 1083.5686,2393.7199 A 34.877762,34.877762 0 0 1 1048.6908,2428.5977 34.877762,34.877762 0 0 1 1013.813,2393.7199 34.877762,34.877762 0 0 1 1048.6908,2358.8422 34.877762,34.877762 0 0 1 1083.5686,2393.7199 Z" /><path
   id="path1-8-5-7-8"
   style="fill:#e6e6e6;fill-opacity:0.625;stroke:#ff0000;stroke-width:2;stroke-linecap:square"
   d="M 1489.2998,2393.72 A 34.877762,34.877762 0 0 1 1454.422,2428.5977 34.877762,34.877762 0 0 1 1419.5442,2393.72 34.877762,34.877762 0 0 1 1454.422,2358.8422 34.877762,34.877762 0 0 1 1489.2998,2393.72 Z" /><path
   id="path1-5-1-9"
   style="fill:#e6e6e6;fill-opacity:0.625;stroke:#ff0000;stroke-width:2;stroke-linecap:square"
   d="M 1887.2922,2393.72 A 34.877762,34.877762 0 0 1 1852.4144,2428.5977 34.877762,34.877762 0 0 1 1817.5367,2393.72 34.877762,34.877762 0 0 1 1852.4144,2358.8422 34.877762,34.877762 0 0 1 1887.2922,2393.72 Z" /></svg>
