<?xml version="1.0" encoding="UTF-8" standalone="no"?>
<svg
   width="2500"
   height="3330"
   viewBox="0 0 2500 3330"
   version="1.1"
   id="svg1"
   xml:space="preserve"
   xmlns="http://www.w3.org/2000/svg"
   xmlns:svg="http://www.w3.org/2000/svg">
   <defs
   id="defs1">
      <style
     id="style1">
      .hold {
        fill: #cccccc;
        stroke: #333333;
        stroke-width: 2;
        cursor: pointer;
      }
      .hold:hover {
        fill: #aaaaaa;
      }
    </style>
   </defs>
   <path
   class="hold"
   id="hold_48"
   d="M 576.15684,809.70177 C 576.15684,841.6126 595.19883,883.9513 645.01597,883.9513 694.83309,883.9513 719.99693,845.35858 719.99691,813.04654 719.99686,780.7345 697.06916,743.31687 648.84869,743.31687 600.62822,743.31687 576.15684,777.79094 576.15684,809.70177 Z" />
   <path
   class="hold"
   id="hold_23"
   d="M 573.93271,1616.2634 C 573.93271,1648.1742 597.55282,1691.6634 647.36994,1691.6634 697.18707,1691.6634 721.20636,1646.168 721.20633,1613.8562 721.2063,1581.544 695.98957,1545.2769 647.76909,1545.2769 599.54864,1545.2769 573.93271,1584.3525 573.93271,1616.2634 Z" />
   <path
   class="hold"
   id="hold_60"
   d="M 935.18078,378.5607 C 944.25171,393.08183 974.77674,404.68952 995.4092,410.23941 1043.533,423.1841 1049.6998,424.76175 1048.1443,388.4712 1046.961,360.86824 1027.5527,365.83139 979.23933,353.62113 932.18291,341.72856 915.96416,347.79784 935.18078,378.5607 Z" />
   <path
   class="hold"
   id="hold_61"
   d="M 788.36364,367.89133 C 766.74259,396.99713 749.57561,414.89918 799.39274,414.89918 864.01453,414.89918 843.80014,419.8161 878.00834,362.71536 908.00899,312.63785 917.25981,301.96573 853.46194,322.82454 822.21191,333.04178 803.81203,347.09509 788.36364,367.89133 Z" />
   <path
   class="hold"
   id="hold_57"
   d="M 713.51574,517.20499 C 713.51574,553.52917 724.71917,569.68442 741.92544,568.53144 770.66617,566.60553 772.73022,554.01065 772.73022,517.68647 772.73022,481.36224 765.78485,469.38915 741.92544,469.73034 726.0906,469.95675 713.51574,480.88078 713.51574,517.20499 Z" />
   <path
   class="hold"
   id="hold_31"
   d="M 720.6774,1356.2726 C 745.70479,1382.4757 771.13764,1380.7731 782.75529,1367.9638 802.16101,1346.5676 793.58984,1342.2974 768.56249,1316.0942 743.53509,1289.8911 726.1287,1277.7528 709.15235,1294.6078 697.88559,1305.794 695.65,1330.0694 720.6774,1356.2726 Z" />
   <path
   class="hold"
   id="hold_34"
   d="M 1098.5923,1281.5606 C 1134.6578,1283.8606 1150.0851,1265.0052 1150.0298,1247.6719 1149.9374,1218.7191 1155.4236,1213.5369 1101.4975,1213.551 1048.1744,1213.5651 1053.1045,1217.4602 1051.9326,1241.4158 1051.1546,1257.3148 1062.527,1279.2604 1098.5923,1281.5606 Z" />
   <path
   class="hold"
   id="hold_4"
   d="M 986.36529,2269.5483 C 984.43406,2305.1475 986.9656,2335.7592 998.14668,2337.4075 1026.6464,2341.609 1033.1785,2303.5917 1038.3927,2280.5327 1046.4027,2245.112 1062.8074,2205.411 1020.3144,2216.1581 1004.9566,2220.0422 988.33288,2233.2781 986.36529,2269.5483 Z" />
   <path
   class="hold"
   id="hold_13"
   d="M 230.37213,1963.7852 C 230.37213,2000.1095 241.57553,2016.2647 258.78183,2015.1117 287.52254,2013.1858 289.5866,2000.5908 289.5866,1964.2667 289.5866,1927.9425 282.64122,1915.9694 258.78183,1916.3105 242.94696,1916.5369 230.37213,1927.461 230.37213,1963.7852 Z" />
   <path
   class="hold"
   id="hold_0"
   d="M 177.84485,2539.9883 C 149.48947,2562.5073 143.82377,2581.3588 155.39087,2594.2142 174.7118,2615.6878 185.82331,2609.5076 214.17881,2586.9887 242.53424,2564.4693 247.57495,2551.569 232.51703,2532.9629 222.52354,2520.6146 206.2003,2517.4691 177.84485,2539.9883 Z" />
   <path
   class="hold"
   id="hold_53"
   d="M 675.28211,641.48902 C 708.16714,656.55051 718.36866,663.09875 748.92028,667.80913 798.16155,675.40095 813.9806,673.75499 825.48586,660.85383 853.76047,629.14865 781.8365,616.92347 732.0194,616.92347 682.20229,616.92347 598.2035,606.1868 675.28211,641.48902 Z" />
   <path
   class="hold"
   id="hold_56"
   d="M 845.49831,576.22435 C 844.16732,612.52395 854.84313,615.27626 904.66027,615.27626 954.47735,615.27625 998.25166,618.56881 984.56326,603.84879 955.59754,572.70059 916.49578,533.56156 879.93399,499.54961 833.33529,456.20072 846.88115,538.51018 845.49831,576.22435 Z" />
   <path
   class="hold"
   id="hold_49"
   d="M 970.77251,768.48919 C 941.85105,762.52559 940.76731,763.53413 901.18663,774.04232 847.99337,788.1645 833.06792,813.72208 860.71023,815.29563 903.74661,817.74548 959.23034,816.66389 1009.795,815.172 1074.2406,813.27058 1002.3885,775.00839 970.77251,768.48919 Z" />
   <path
   class="hold"
   id="hold_39"
   d="M 1097.16,1140.8848 C 1164.0474,1117.7901 1129.104,1099.6203 1103.0621,1069.9676 1049.5458,1009.0319 1054.3831,1019.3342 1053.0234,1039.7641 1050.2096,1082.0433 1053.6122,1085.4512 1053.1926,1116.211 1052.3084,1181.0106 1068.1494,1150.9012 1097.16,1140.8848 Z" />
   <path
   class="hold"
   id="hold_46"
   d="M 1216.6551,926.81739 C 1243.6466,914.79313 1247.5502,918.57297 1249.479,877.46976 1252.245,818.51688 1249.1427,805.29009 1233.6302,818.56143 1199.3055,847.92692 1122.9374,927.01045 1084.9217,960.55593 993.24706,1041.451 1173.5093,946.03812 1216.6551,926.81739 Z" />
   <path
   class="hold"
   id="hold_37"
   d="M 843.1824,1094.9356 C 824.5404,1117.9474 834.51981,1152.0501 831.60571,1193.0946 829.16716,1227.441 845.78107,1232.2709 857.54531,1205.8478 876.55885,1163.1425 890.01966,1131.4519 910.50425,1084.9603 936.61221,1025.7058 883.43861,1045.2429 843.1824,1094.9356 Z" />
   <path
   class="hold"
   id="hold_24"
   d="M 1065.1883,1541.193 C 1035.5013,1541.8518 1021.5124,1549.06 996.39971,1581.5572 971.28694,1614.0544 978.49545,1613.3847 998.82565,1614.6749 1053.8296,1618.1655 1038.474,1622.4356 1119.8258,1565.2803 1178.9906,1523.7127 1095.8551,1540.5126 1065.1883,1541.193 Z" />
   <path
   class="hold"
   id="hold_18"
   d="M 159.46651,1687.1928 C 144.98071,1713.0512 188.01083,1771.8484 204.44278,1809.5372 215.32081,1834.4877 241.71633,1821.2247 242.21223,1790.2353 242.82934,1751.6736 247.19183,1745.4931 244.35359,1694.7263 243.01073,1670.7059 165.61553,1676.2166 159.46651,1687.1928 Z" />
   <path
   class="hold"
   id="hold_22"
   d="M 390.48807,1621.9892 C 360.96557,1622.2633 355.83125,1639.4027 330.89916,1672.0403 294.3528,1719.8814 296.21053,1732.8691 314.87258,1724.6602 399.07724,1687.6216 399.21962,1701.4682 430.10817,1652.3413 459.2043,1606.0654 433.60519,1621.5888 390.48807,1621.9892 Z" />
   <path
   class="hold"
   id="hold_33"
   d="M 584.30439,1285.7259 C 571.19623,1300.8501 544.0692,1313.5987 601.73847,1342.4768 628.01946,1355.6372 650.27612,1376.6221 649.52811,1328.0194 649.10733,1300.6804 649.27472,1287.8138 649.52959,1248.6828 649.8593,1198.066 643.19197,1217.7815 584.30439,1285.7259 Z" />
   <path
   class="hold"
   id="hold_27"
   d="M 975.13162,1477.0743 C 999.42755,1489.5927 1009.7936,1468.0815 1028.9763,1445.7375 1048.1587,1423.3937 1060.2238,1412.6461 1035.7524,1412.813 950.18599,1413.3966 965.083,1404.279 962.32256,1429.7464 959.93145,1451.806 959.43617,1468.9874 975.13162,1477.0743 Z" />
   <path
   class="hold"
   id="hold_30"
   d="M 975.34043,1346.6528 C 958.50128,1368.2541 949.88291,1377.8068 1013.1477,1401.196 1052.4707,1415.7338 1052.866,1427.8803 1050.2752,1374.0332 1048.6516,1340.289 1048.0336,1352.4245 1049.6797,1313.3276 1052.0292,1257.5249 1002.8374,1311.3796 975.34043,1346.6528 Z" />
   <path
   class="hold"
   id="hold_41"
   d="M 428.77853,1030.6108 C 403.97111,981.63792 358.59226,1022.9135 339.89238,1045.6668 321.19259,1068.4204 298.94666,1095.9172 342.96591,1093.3897 376.52164,1091.463 392.75006,1088.6098 431.38625,1083.8023 464.03622,1079.7396 437.52421,1047.8759 428.77853,1030.6108 Z" />
   <path
   class="hold"
   id="hold_10"
   d="M 651.00906,2044.8939 C 649.02978,2017.5235 659.20469,2020.6369 611.76613,1993.7399 551.32012,1959.4678 550.71845,1948.7716 555.03342,2005.1196 557.6128,2038.8036 575.59789,2088.5202 612.93679,2101.817 654.57609,2116.6448 654.33223,2090.8489 651.00906,2044.8939 Z" />
   <path
   class="hold"
   id="hold_45"
   d="M 530.42468,972.8331 C 529.92013,1009.6166 524.43324,1014.5438 598.08336,1016.1675 637.41244,1017.0346 670.25543,1017.9844 655.9391,1002.1494 625.64518,968.64171 593.75017,931.85639 556.79986,894.83217 509.706,847.64407 531.33711,906.30721 530.42468,972.8331 Z" />
   <path
   class="hold"
   id="hold_16"
   d="M 1017.6569,1833.4328 C 1051.8431,1813.6386 1047.0654,1830.0828 1048.3604,1766.6504 1049.2004,1725.5102 1056.1616,1700.8958 1038.1757,1710.5101 1006.4215,1727.4849 993.21371,1751.123 971.34773,1800.5185 950.52687,1847.5533 974.60398,1858.3607 1017.6569,1833.4328 Z" />
   <path
   class="hold"
   id="hold_11"
   d="M 907.10881,1933.0825 C 843.64294,1937.1378 841.99351,1931.7441 856.25462,1985.3146 867.11185,2026.0985 884.00972,2026.5079 907.1372,2005.1744 938.89617,1975.8791 914.12226,1990.9427 952.5613,1957.8881 985.2871,1929.7465 970.6085,1929.0249 907.10881,1933.0825 Z" />
   <path
   class="hold"
   id="hold_9"
   d="M 1128.9412,2143.242 C 1118.8682,2073.5182 1118.8195,2063.0127 1085.5317,2039.0603 1039.6769,2006.0651 1048.2586,2011.2913 1051.3451,2055.5592 1053.8172,2091.0141 1044.2642,2084.1752 1107.844,2165.5073 1142.4546,2209.7817 1132.0879,2165.0231 1128.9412,2143.242 Z" />
   <path
   class="hold"
   id="hold_15"
   d="M 1214.38,2026.3031 C 1260.6285,2010.253 1250.8541,2024.1852 1248.9188,1935.0213 1245.0276,1755.7651 1245.5624,1810.0711 1206.3108,1903.4716 1189.5373,1943.3843 1171.0782,1970.5336 1154.4582,2018.5582 1137.0649,2068.8169 1161.4124,2044.6848 1214.38,2026.3031 Z" />
   <path
   class="hold"
   id="hold_3"
   d="M 988.58342,2436.7732 C 983.50478,2407.8184 972.30535,2418.1858 874.27195,2416.5757 851.28062,2416.1982 833.59434,2449.6605 852.07283,2458.2784 891.17397,2476.5151 907.67312,2486.5452 953.78563,2507.4521 1017.2798,2536.2397 993.90957,2467.1371 988.58342,2436.7732 Z" />
   <path
   class="hold"
   id="hold_12"
   d="M 444.48985,2015.2974 C 455.04137,2013.5181 487.05124,2008.5599 507.82003,1973.0993 528.58879,1937.6391 500.5866,1930.8237 482.68759,1940.5998 444.81254,1961.2863 455.56877,1954.2057 412.19136,1980.3665 363.17942,2009.9257 414.23833,2020.3985 444.48985,2015.2974 Z" />
   <path
   class="hold"
   id="hold_40"
   d="M 659.82143,1047.2089 C 682.37296,1066.3617 711.93576,1071.2015 752.6758,1075.2431 797.18065,1079.6582 880.48286,1070.9231 830.56014,1053.9306 789.73219,1040.0334 752.47338,1030.4436 703.10426,1019.356 650.30885,1007.4988 633.32419,1024.7051 659.82143,1047.2089 Z" />
   <path
   class="hold"
   id="hold_5"
   d="M 582.04513,2333.3885 C 637.87518,2336.5833 641.29412,2332.5906 642.57666,2293.5422 644.14561,2245.7728 656.75025,2189.6605 616.82568,2226.7565 583.17114,2258.0267 565.92152,2270.4709 526.14633,2306.0766 475.45201,2351.457 540.63739,2331.0191 582.04513,2333.3885 Z" />
   <path
   class="hold"
   id="hold_7"
   d="M 513.15972,2194.8195 C 545.03379,2181.5192 515.0181,2153.8414 490.13261,2123.8286 461.84605,2089.7144 445.82431,2073.1658 445.21767,2127.2777 444.97652,2148.7819 442.34244,2179.8489 444.39939,2207.8598 445.99794,2229.6279 492.67689,2203.3665 513.15972,2194.8195 Z" />
   <path
   class="hold"
   id="hold_59"
   d="M 1029.6978,524.73831 C 1022.9822,569.40522 1032.0549,559.57195 1069.6218,565.94265 1096.2489,570.45817 1089.2159,542.99003 1089.2159,497.81601 1089.2159,452.64195 1087.7808,414.95938 1060.7773,414.95933 1046.7714,414.9593 1036.7872,477.58476 1029.6978,524.73831 Z" />
   <path
   class="hold"
   id="hold_63"
   d="M 851.98544,249.80872 C 872.4768,320.3042 871.911,311.50631 938.59003,290.26873 1016.0123,265.60943 1051.5645,263.51747 1047.1646,227.2583 1043.7405,199.04097 973.61383,198.17658 923.81125,199.38534 834.42406,201.55483 841.85061,214.94222 851.98544,249.80872 Z" />
   <path
   class="hold"
   id="hold_65"
   d="M 644.44892,235.84193 C 642.51868,267.61412 657.15537,262.79283 738.51286,264.08681 788.32371,264.87904 830.28652,268.25497 831.28943,237.13592 832.52319,198.85573 820.51058,213.78704 733.36342,212.77302 653.93833,211.84888 646.65299,199.56227 644.44892,235.84193 Z" />
   <path
   class="hold"
   id="hold_64"
   d="M 279.50056,267.99912 C 260.21973,298.72135 288.64869,308.81286 343.27145,271.77985 384.57182,243.7791 413.04938,238.30791 439.07986,227.34328 472.40956,213.30405 390.58716,178.06683 348.87798,205.44857 311.47545,230.0031 294.71838,243.7509 279.50056,267.99912 Z" />
   <path
   class="hold"
   id="hold_62"
   d="M 461.58806,350.48648 C 427.91362,435.42889 425.33246,414.8411 556.93939,415.61028 638.92162,416.08943 635.96798,425.23745 652.93437,371.83742 672.54442,310.11671 643.66083,336.77865 544.70944,302.83168 462.77248,274.72176 492.42565,272.69993 461.58806,350.48648 Z" />
   <path
   class="hold"
   id="hold_36"
   d="M 51.848402,1153.7506 C 30.160253,1227.9571 30.797375,1213.9369 138.90622,1214.0115 220.88976,1214.0679 217.89074,1221.758 234.90115,1175.1013 252.27166,1127.4572 234.48188,1144.2075 137.04293,1106.0958 63.399627,1077.2911 71.058348,1088.0222 51.848402,1153.7506 Z" />
   <path
   class="hold"
   id="hold_26"
   d="M 446.44637,1461.3859 C 447.61095,1396.4809 433.37714,1413.6529 341.65375,1439.5508 276.25745,1458.0153 253.11283,1466.8716 270.00898,1504.0457 277.73438,1521.0426 316.4427,1532.4043 355.45129,1527.7232 441.41889,1517.4076 445.41444,1518.8972 446.44637,1461.3859 Z" />
   <path
   class="hold"
   id="hold_6"
   d="M 59.222237,2177.0041 C 57.891176,2238.4839 98.995128,2238.6774 155.44663,2237.6802 201.16814,2236.8726 235.75201,2227.6273 243.51211,2197.567 251.32501,2167.3025 234.23856,2162.5083 135.28721,2128.5613 53.350176,2100.4515 60.731418,2107.2941 59.222237,2177.0041 Z" />
   <path
   class="hold"
   id="hold_21"
   d="M 1077.8432,1759.3813 C 1113.8567,1843.3485 1097.5377,1830.639 1191.062,1737.5648 1249.3212,1679.5858 1253.6753,1688.15 1228.065,1638.353 1198.4643,1580.7969 1196.8295,1620.1801 1103.0175,1666.5844 1025.3365,1705.0094 1044.8633,1682.4875 1077.8432,1759.3813 Z" />
   <path
   class="hold"
   id="hold_8"
   d="M 787.5978,2213.0188 C 872.34895,2246.244 851.88619,2248.9891 851.68791,2116.7019 851.56441,2034.2961 860.68691,2037.1976 807.43786,2020.5352 745.89168,2001.2765 772.62769,2030.113 739.58005,2129.8201 712.21486,2212.383 709.98638,2182.5926 787.5978,2213.0188 Z" />
   <path
   class="hold"
   id="hold_55"
   d="M 460.35576,603.16547 C 460.35578,639.48969 505.7024,625.85089 559.98985,624.76332 669.12842,622.57689 645.55473,613.76265 647.16166,569.6233 649.35283,509.4358 642.06351,509.97535 562.74863,532.21851 509.20114,547.23542 460.35576,566.84129 460.35576,603.16547 Z" />
   <path
   class="hold"
   id="hold_51"
   d="M 351.81235,789.06753 C 324.51138,812.86676 341.47348,816.74607 401.7851,816.74607 466.17801,816.74607 447.0937,801.36432 482.0755,735.15235 499.0249,703.07123 554.23622,609.4274 513.14386,637.73569 480.81765,660.005 400.20381,746.88298 351.81235,789.06753 Z" />
   <path
   class="hold"
   id="hold_54"
   d="M 298.49672,623.7341 C 299.88393,654.67417 321.39056,654.34284 371.20768,654.34284 421.02477,654.34284 448.75447,664.55881 445.08469,628.42238 442.16955,599.71662 419.5621,597.27552 397.44402,601.32985 348.36092,610.32703 298.08212,614.48689 298.49672,623.7341 Z" />
   <path
   class="hold"
   id="hold_50"
   d="M 212.00771,747.88392 C 212.00774,784.20811 223.59504,819.72367 245.07264,815.4128 264.99612,811.41383 261.2297,780.10589 261.2297,743.78169 261.2297,707.45746 249.4837,684.96011 239.82539,685.04331 218.35808,685.22822 212.00771,711.55971 212.00771,747.88392 Z" />
   <path
   class="hold"
   id="hold_42"
   d="M 971.56474,1000.9617 C 1002.5724,1019.6175 1059.7924,1024.239 1050.1588,1004.4684 1041.1092,985.89598 1009.6968,958.71554 986.06975,949.0924 961.6809,939.15904 939.7427,930.34184 934.85329,938.7145 923.98578,957.32412 940.55708,982.30594 971.56474,1000.9617 Z" />
   <path
   class="hold"
   id="hold_35"
   d="M 986.38925,1206.5355 C 1031.9788,1218.586 1052.5079,1240.4099 1049.1482,1191.6311 1046.9899,1160.2966 1038.0014,1169.3585 988.07855,1159.3222 952.64235,1152.1979 931.84717,1154.2748 929.9985,1163.8037 925.88947,1184.9834 951.24689,1197.2468 986.38925,1206.5355 Z" />
   <path
   class="hold"
   id="hold_43"
   d="M 785.78979,960.1811 C 786.87626,982.94866 796.86983,979.32767 827.60014,1004.8547 855.45862,1027.9961 851.3366,1004.1238 851.3366,967.79954 851.33656,931.47536 847.4759,923.62803 819.50196,932.41571 789.135,941.955 785.15356,946.84937 785.78979,960.1811 Z" />
   <path
   class="hold"
   id="hold_29"
   d="M 1097.7261,1351.95 C 1083.7075,1356.9676 1076.9944,1380.205 1068.2896,1393.1503 1048.0513,1423.2473 1070.9674,1412.3293 1107.0926,1411.3673 1143.218,1410.405 1159.9575,1398.6782 1138.4031,1378.7167 1112.9045,1355.1026 1110.2354,1347.4725 1097.7261,1351.95 Z" />
   <path
   class="hold"
   id="hold_14"
   d="M 649.63234,1945.0256 C 649.27817,1986.4925 688.9019,1993.6268 743.03276,1987.6478 796.70579,1981.7194 829.34931,1990.5227 832.01949,1937.513 833.26499,1912.7871 778.98812,1911.7643 732.15753,1894.6872 629.88343,1857.3923 650.27203,1870.1205 649.63234,1945.0256 Z" />
   <path
   class="hold"
   id="hold_52"
   d="M 1050.256,704.72525 C 1049.8292,814.36713 1038.5182,820.36114 1117.0505,792.42404 1181.4092,769.52911 1192.7092,794.75882 1159.4948,695.90791 1125.4964,594.72478 1142.0946,587.4982 1091.7097,601.98845 1038.1012,617.40581 1050.6239,610.21251 1050.256,704.72525 Z" />
   <path
   class="hold"
   id="hold_58"
   d="M 239.90756,508.53774 C 238.42252,607.54278 238.66852,596.60478 284.47936,597.55212 337.56737,598.6499 334.60541,612.32808 334.30319,507.47406 334.03335,413.83517 340.95192,414.6591 288.54614,414.95419 234.93766,415.25607 241.32504,414.03502 239.90756,508.53774 Z" />
   <path
   class="hold"
   id="hold_44"
   d="M 281.82565,983.47074 C 323.20292,1022.2287 315.60284,1016.8695 331.97408,999.54956 350.94585,979.47818 352.58438,985.73994 312.41578,949.74565 273.29309,914.68857 278.76414,913.37327 260.55836,933.67193 241.93476,954.43642 246.15787,950.06099 281.82565,983.47074 Z" />
   <path
   class="hold"
   id="hold_32"
   d="M 360.58149,1308.6215 C 360.15472,1418.2634 357.75513,1400.4115 403.56595,1401.3587 456.654,1402.4565 449.98129,1412.9409 448.09863,1308.6215 446.265,1207.0184 455.27646,1213.1473 402.87069,1213.4424 349.26223,1213.7442 360.94943,1214.1087 360.58149,1308.6215 Z" />
   <path
   class="hold"
   id="hold_20"
   d="M 441.39038,1712.9225 C 440.96358,1810.06 439.94628,1797.7656 485.7571,1798.7129 538.84515,1799.8107 530.79019,1817.2419 528.90755,1712.9225 527.07392,1611.3194 539.25817,1617.9798 486.85238,1618.275 433.24392,1618.5767 441.80567,1618.4099 441.39038,1712.9225 Z" />
   <path
   class="hold"
   id="hold_2"
   d="M 357.34993,2506.2979 C 356.92314,2615.9399 354.52357,2598.0877 400.3344,2599.0353 453.42242,2600.1331 446.74973,2610.6173 444.86709,2506.2979 443.03348,2404.6948 452.04493,2410.8238 399.63915,2411.1189 346.03066,2411.4209 357.71787,2411.7852 357.34993,2506.2979 Z" />
   <path
   class="hold"
   id="hold_1"
   d="M 701.5464,2573.4151 C 745.78351,2615.2782 770.15015,2621.6918 815.28273,2580.169 854.45182,2544.1331 854.47798,2555.0408 780.34102,2482.0132 708.13444,2410.8872 718.48812,2409.2159 681.68731,2446.7197 647.62769,2481.4298 669.10538,2542.715 701.5464,2573.4151 Z" />
   <path
   class="hold"
   id="hold_38"
   d="M 508.09347,1078.9858 C 430.43168,1146.0292 443.26122,1137.0068 472.86747,1176.383 491.19139,1200.7537 536.09055,1208.3579 577.46404,1155.2318 626.79847,1091.8835 640.78452,1080.4084 611.33555,1048.937 572.64162,1007.5855 583.19783,1014.1503 508.09347,1078.9858 Z" />
   <path
   class="hold"
   id="hold_47"
   d="M 442.26086,907.90059 C 442.01642,1014.7832 440.64218,997.38047 466.87733,998.30398 497.28001,999.37409 493.45864,1009.5946 492.38052,907.90059 491.3304,808.85459 496.49107,814.82921 466.47915,815.11686 435.77849,815.41116 442.47154,815.76644 442.26086,907.90059 Z" />
   <path
   class="hold"
   id="hold_28"
   d="M 551.59524,1409.9676 C 445.2795,1411.991 447.01981,1424.9119 488.31933,1441.503 516.56796,1452.8515 529.62231,1456.6992 560.43636,1458.6645 631.70579,1463.2099 650.60767,1445.159 650.11783,1431.1468 649.62669,1417.0963 622.70643,1408.6143 551.59524,1409.9676 Z" />
   <path
   class="hold"
   id="hold_25"
   d="M 803.76534,1509.0775 C 803.51457,1618.9856 802.10464,1601.0903 829.02183,1602.0399 860.21493,1603.1404 856.2942,1613.65 855.18802,1509.0775 854.11064,1407.2281 859.40554,1413.3718 828.61334,1413.6677 797.11446,1413.9702 803.98154,1414.3357 803.76534,1509.0775 Z" />
   <path
   class="hold"
   id="hold_19"
   d="M 838.1034,1718.8208 C 826.70897,1746.1976 820.91828,1767.0004 819.98139,1808.1385 819.66485,1822.0386 866.29589,1834.3899 870.67298,1804.6203 877.34197,1759.2635 879.67075,1753.5096 882.70482,1696.3872 886.1421,1631.6737 846.74479,1698.0588 838.1034,1718.8208 Z" />
   <path
   class="hold"
   id="hold_17"
   d="M 632.87196,1796.0469 C 647.57602,1821.7805 668.6437,1814.0934 709.58116,1814.3012 769.02012,1814.6029 783.15184,1806.1672 765.49883,1795.9493 728.14426,1774.3278 719.70185,1773.2456 674.85984,1749.7117 617.70782,1719.7171 617.59501,1769.3104 632.87196,1796.0469 Z" />
   <path
   class="hold"
   id="hold_100"
   d="M 2322.1552,2539.9883 C 2350.5105,2562.5073 2356.1762,2581.3588 2344.6091,2594.2142 2325.2882,2615.6878 2314.1767,2609.5076 2285.8212,2586.9887 2257.4658,2564.4693 2252.425,2551.569 2267.483,2532.9629 2277.4765,2520.6146 2293.7997,2517.4691 2322.1552,2539.9883 Z" />
   <path
   class="hold"
   id="hold_101"
   d="M 1798.4536,2573.4151 C 1754.2165,2615.2782 1729.8499,2621.6918 1684.7173,2580.169 1645.5482,2544.1331 1645.522,2555.0408 1719.659,2482.0132 1791.8656,2410.8872 1781.5119,2409.2159 1818.3127,2446.7197 1852.3723,2481.4298 1830.8946,2542.715 1798.4536,2573.4151 Z" />
   <path
   class="hold"
   id="hold_102"
   d="M 2142.6501,2506.2979 C 2143.0769,2615.9399 2145.4764,2598.0877 2099.6656,2599.0353 2046.5776,2600.1331 2053.2503,2610.6173 2055.1329,2506.2979 2056.9665,2404.6948 2047.9551,2410.8238 2100.3609,2411.1189 2153.9693,2411.4209 2142.2821,2411.7852 2142.6501,2506.2979 Z" />
   <path
   class="hold"
   id="hold_103"
   d="M 1511.4166,2436.7732 C 1516.4952,2407.8184 1527.6947,2418.1858 1625.7281,2416.5757 1648.7194,2416.1982 1666.4057,2449.6605 1647.9272,2458.2784 1608.826,2476.5151 1592.3269,2486.5452 1546.2144,2507.4521 1482.7202,2536.2397 1506.0904,2467.1371 1511.4166,2436.7732 Z" />
   <path
   class="hold"
   id="hold_104"
   d="M 1513.6347,2269.5483 C 1515.5659,2305.1475 1513.0344,2335.7592 1501.8533,2337.4075 1473.3536,2341.609 1466.8215,2303.5917 1461.6073,2280.5327 1453.5973,2245.112 1437.1926,2205.411 1479.6856,2216.1581 1495.0434,2220.0422 1511.6671,2233.2781 1513.6347,2269.5483 Z" />
   <path
   class="hold"
   id="hold_105"
   d="M 1917.9549,2333.3885 C 1862.1248,2336.5833 1858.7059,2332.5906 1857.4233,2293.5422 1855.8544,2245.7728 1843.2498,2189.6605 1883.1743,2226.7565 1916.8289,2258.0267 1934.0785,2270.4709 1973.8537,2306.0766 2024.548,2351.457 1959.3626,2331.0191 1917.9549,2333.3885 Z" />
   <path
   class="hold"
   id="hold_106"
   d="M 2440.7778,2177.0041 C 2442.1088,2238.4839 2401.0049,2238.6774 2344.5534,2237.6802 2298.8319,2236.8726 2264.248,2227.6273 2256.4879,2197.567 2248.675,2167.3025 2265.7614,2162.5083 2364.7128,2128.5613 2446.6498,2100.4515 2439.2686,2107.2941 2440.7778,2177.0041 Z" />
   <path
   class="hold"
   id="hold_107"
   d="M 1986.8403,2194.8195 C 1954.9662,2181.5192 1984.9819,2153.8414 2009.8674,2123.8286 2038.1539,2089.7144 2054.1757,2073.1658 2054.7823,2127.2777 2055.0235,2148.7819 2057.6576,2179.8489 2055.6006,2207.8598 2054.0021,2229.6279 2007.3231,2203.3665 1986.8403,2194.8195 Z" />
   <path
   class="hold"
   id="hold_108"
   d="M 1712.4022,2213.0188 C 1627.6511,2246.244 1648.1138,2248.9891 1648.3121,2116.7019 1648.4356,2034.2961 1639.3131,2037.1976 1692.5621,2020.5352 1754.1083,2001.2765 1727.3723,2030.113 1760.42,2129.8201 1787.7851,2212.383 1790.0136,2182.5926 1712.4022,2213.0188 Z" />
   <path
   class="hold"
   id="hold_109"
   d="M 1371.0588,2143.242 C 1381.1318,2073.5182 1381.1805,2063.0127 1414.4683,2039.0603 1460.3231,2006.0651 1451.7414,2011.2913 1448.6549,2055.5592 1446.1828,2091.0141 1455.7358,2084.1752 1392.156,2165.5073 1357.5454,2209.7817 1367.9121,2165.0231 1371.0588,2143.242 Z" />
   <path
   class="hold"
   id="hold_110"
   d="M 1848.9909,2044.8939 C 1850.9702,2017.5235 1840.7953,2020.6369 1888.2339,1993.7399 1948.6799,1959.4678 1949.2816,1948.7716 1944.9666,2005.1196 1942.3872,2038.8036 1924.4021,2088.5202 1887.0632,2101.817 1845.4239,2116.6448 1845.6678,2090.8489 1848.9909,2044.8939 Z" />
   <path
   class="hold"
   id="hold_111"
   d="M 1592.8912,1933.0825 C 1656.3571,1937.1378 1658.0065,1931.7441 1643.7454,1985.3146 1632.8882,2026.0985 1615.9903,2026.5079 1592.8628,2005.1744 1561.1038,1975.8791 1585.8777,1990.9427 1547.4387,1957.8881 1514.7129,1929.7465 1529.3915,1929.0249 1592.8912,1933.0825 Z" />
   <path
   class="hold"
   id="hold_112"
   d="M 2055.5102,2015.2974 C 2044.9586,2013.5181 2012.9488,2008.5599 1992.18,1973.0993 1971.4112,1937.6391 1999.4134,1930.8237 2017.3124,1940.5998 2055.1875,1961.2863 2044.4312,1954.2057 2087.8086,1980.3665 2136.8206,2009.9257 2085.7617,2020.3985 2055.5102,2015.2974 Z" />
   <path
   class="hold"
   id="hold_113"
   d="M 2269.6279,1963.7852 C 2269.6279,2000.1095 2258.4245,2016.2647 2241.2182,2015.1117 2212.4775,2013.1858 2210.4134,2000.5908 2210.4134,1964.2667 2210.4134,1927.9425 2217.3588,1915.9694 2241.2182,1916.3105 2257.053,1916.5369 2269.6279,1927.461 2269.6279,1963.7852 Z" />
   <path
   class="hold"
   id="hold_114"
   d="M 1850.3677,1945.0256 C 1850.7218,1986.4925 1811.0981,1993.6268 1756.9672,1987.6478 1703.2942,1981.7194 1670.6507,1990.5227 1667.9805,1937.513 1666.735,1912.7871 1721.0119,1911.7643 1767.8425,1894.6872 1870.1166,1857.3923 1849.728,1870.1205 1850.3677,1945.0256 Z" />
   <path
   class="hold"
   id="hold_115"
   d="M 1285.62,2026.3031 C 1239.3715,2010.253 1249.1459,2024.1852 1251.0812,1935.0213 1254.9724,1755.7651 1254.4376,1810.0711 1293.6892,1903.4716 1310.4627,1943.3843 1328.9218,1970.5336 1345.5418,2018.5582 1362.9351,2068.8169 1338.5876,2044.6848 1285.62,2026.3031 Z" />
   <path
   class="hold"
   id="hold_116"
   d="M 1482.3431,1833.4328 C 1448.1569,1813.6386 1452.9346,1830.0828 1451.6396,1766.6504 1450.7996,1725.5102 1443.8384,1700.8958 1461.8243,1710.5101 1493.5785,1727.4849 1506.7863,1751.123 1528.6523,1800.5185 1549.4731,1847.5533 1525.396,1858.3607 1482.3431,1833.4328 Z" />
   <path
   class="hold"
   id="hold_117"
   d="M 1867.128,1796.0469 C 1852.424,1821.7805 1831.3563,1814.0934 1790.4188,1814.3012 1730.9799,1814.6029 1716.8482,1806.1672 1734.5012,1795.9493 1771.8557,1774.3278 1780.2982,1773.2456 1825.1402,1749.7117 1882.2922,1719.7171 1882.405,1769.3104 1867.128,1796.0469 Z" />
   <path
   class="hold"
   id="hold_118"
   d="M 2340.5335,1687.1928 C 2355.0193,1713.0512 2311.9892,1771.8484 2295.5572,1809.5372 2284.6792,1834.4877 2258.2837,1821.2247 2257.7878,1790.2353 2257.1707,1751.6736 2252.8082,1745.4931 2255.6464,1694.7263 2256.9893,1670.7059 2334.3845,1676.2166 2340.5335,1687.1928 Z" />
   <path
   class="hold"
   id="hold_119"
   d="M 1661.8966,1718.8208 C 1673.291,1746.1976 1679.0817,1767.0004 1680.0186,1808.1385 1680.3351,1822.0386 1633.7041,1834.3899 1629.327,1804.6203 1622.658,1759.2635 1620.3293,1753.5096 1617.2952,1696.3872 1613.8579,1631.6737 1653.2552,1698.0588 1661.8966,1718.8208 Z" />
   <path
   class="hold"
   id="hold_120"
   d="M 2058.6096,1712.9225 C 2059.0364,1810.06 2060.0537,1797.7656 2014.2429,1798.7129 1961.1548,1799.8107 1969.2098,1817.2419 1971.0925,1712.9225 1972.9261,1611.3194 1960.7418,1617.9798 2013.1476,1618.275 2066.7561,1618.5767 2058.1943,1618.4099 2058.6096,1712.9225 Z" />
   <path
   class="hold"
   id="hold_121"
   d="M 1422.1568,1759.3813 C 1386.1433,1843.3485 1402.4623,1830.639 1308.938,1737.5648 1250.6788,1679.5858 1246.3247,1688.15 1271.935,1638.353 1301.5357,1580.7969 1303.1705,1620.1801 1396.9825,1666.5844 1474.6635,1705.0094 1455.1367,1682.4875 1422.1568,1759.3813 Z" />
   <path
   class="hold"
   id="hold_122"
   d="M 2109.5119,1621.9892 C 2139.0344,1622.2633 2144.1687,1639.4027 2169.1008,1672.0403 2205.6472,1719.8814 2203.7895,1732.8691 2185.1274,1724.6602 2100.9228,1687.6216 2100.7804,1701.4682 2069.8918,1652.3413 2040.7957,1606.0654 2066.3948,1621.5888 2109.5119,1621.9892 Z" />
   <path
   class="hold"
   id="hold_123"
   d="M 1926.0673,1616.2634 C 1926.0673,1648.1742 1902.4472,1691.6634 1852.6301,1691.6634 1802.8129,1691.6634 1778.7936,1646.168 1778.7937,1613.8562 1778.7937,1581.544 1804.0104,1545.2769 1852.2309,1545.2769 1900.4514,1545.2769 1926.0673,1584.3525 1926.0673,1616.2634 Z" />
   <path
   class="hold"
   id="hold_124"
   d="M 1434.8117,1541.193 C 1464.4987,1541.8518 1478.4876,1549.06 1503.6003,1581.5572 1528.7131,1614.0544 1521.5046,1613.3847 1501.1744,1614.6749 1446.1704,1618.1655 1461.526,1622.4356 1380.1742,1565.2803 1321.0094,1523.7127 1404.1449,1540.5126 1434.8117,1541.193 Z" />
   <path
   class="hold"
   id="hold_125"
   d="M 1696.2347,1509.0775 C 1696.4854,1618.9856 1697.8954,1601.0903 1670.9782,1602.0399 1639.7851,1603.1404 1643.7058,1613.65 1644.812,1509.0775 1645.8894,1407.2281 1640.5945,1413.3718 1671.3867,1413.6677 1702.8855,1413.9702 1696.0185,1414.3357 1696.2347,1509.0775 Z" />
   <path
   class="hold"
   id="hold_126"
   d="M 2053.5536,1461.3859 C 2052.389,1396.4809 2066.6229,1413.6529 2158.3463,1439.5508 2223.7426,1458.0153 2246.8872,1466.8716 2229.991,1504.0457 2222.2656,1521.0426 2183.5573,1532.4043 2144.5487,1527.7232 2058.5811,1517.4076 2054.5856,1518.8972 2053.5536,1461.3859 Z" />
   <path
   class="hold"
   id="hold_127"
   d="M 1524.8684,1477.0743 C 1500.5725,1489.5927 1490.2064,1468.0815 1471.0237,1445.7375 1451.8413,1423.3937 1439.7762,1412.6461 1464.2476,1412.813 1549.814,1413.3966 1534.917,1404.279 1537.6774,1429.7464 1540.0686,1451.806 1540.5638,1468.9874 1524.8684,1477.0743 Z" />
   <path
   class="hold"
   id="hold_128"
   d="M 1948.4048,1409.9676 C 2054.7205,1411.991 2052.9802,1424.9119 2011.6807,1441.503 1983.432,1452.8515 1970.3777,1456.6992 1939.5636,1458.6645 1868.2942,1463.2099 1849.3923,1445.159 1849.8822,1431.1468 1850.3733,1417.0963 1877.2936,1408.6143 1948.4048,1409.9676 Z" />
   <path
   class="hold"
   id="hold_129"
   d="M 1402.2739,1351.95 C 1416.2925,1356.9676 1423.0056,1380.205 1431.7104,1393.1503 1451.9487,1423.2473 1429.0326,1412.3293 1392.9074,1411.3673 1356.782,1410.405 1340.0425,1398.6782 1361.5969,1378.7167 1387.0955,1355.1026 1389.7646,1347.4725 1402.2739,1351.95 Z" />
   <path
   class="hold"
   id="hold_130"
   d="M 1524.6596,1346.6528 C 1541.4987,1368.2541 1550.1171,1377.8068 1486.8523,1401.196 1447.5293,1415.7338 1447.134,1427.8803 1449.7248,1374.0332 1451.3484,1340.289 1451.9664,1352.4245 1450.3203,1313.3276 1447.9708,1257.5249 1497.1626,1311.3796 1524.6596,1346.6528 Z" />
   <path
   class="hold"
   id="hold_131"
   d="M 1779.3226,1356.2726 C 1754.2952,1382.4757 1728.8624,1380.7731 1717.2447,1367.9638 1697.839,1346.5676 1706.4102,1342.2974 1731.4375,1316.0942 1756.4649,1289.8911 1773.8713,1277.7528 1790.8477,1294.6078 1802.1144,1305.794 1804.35,1330.0694 1779.3226,1356.2726 Z" />
   <path
   class="hold"
   id="hold_132"
   d="M 2139.4185,1308.6215 C 2139.8453,1418.2634 2142.2449,1400.4115 2096.434,1401.3587 2043.346,1402.4565 2050.0187,1412.9409 2051.9014,1308.6215 2053.735,1207.0184 2044.7235,1213.1473 2097.1293,1213.4424 2150.7378,1213.7442 2139.0506,1214.1087 2139.4185,1308.6215 Z" />
   <path
   class="hold"
   id="hold_133"
   d="M 1915.6956,1285.7259 C 1928.8038,1300.8501 1955.9308,1313.5987 1898.2615,1342.4768 1871.9805,1355.6372 1849.7239,1376.6221 1850.4719,1328.0194 1850.8927,1300.6804 1850.7253,1287.8138 1850.4704,1248.6828 1850.1407,1198.066 1856.808,1217.7815 1915.6956,1285.7259 Z" />
   <path
   class="hold"
   id="hold_134"
   d="M 1401.4077,1281.5606 C 1365.3422,1283.8606 1349.9149,1265.0052 1349.9702,1247.6719 1350.0626,1218.7191 1344.5764,1213.5369 1398.5025,1213.551 1451.8256,1213.5651 1446.8955,1217.4602 1448.0674,1241.4158 1448.8454,1257.3148 1437.473,1279.2604 1401.4077,1281.5606 Z" />
   <path
   class="hold"
   id="hold_135"
   d="M 1513.6108,1206.5355 C 1468.0212,1218.586 1447.4921,1240.4099 1450.8518,1191.6311 1453.0101,1160.2966 1461.9986,1169.3585 1511.9215,1159.3222 1547.3577,1152.1979 1568.1528,1154.2748 1570.0015,1163.8037 1574.1105,1184.9834 1548.7531,1197.2468 1513.6108,1206.5355 Z" />
   <path
   class="hold"
   id="hold_136"
   d="M 2448.1516,1153.7506 C 2469.8397,1227.9571 2469.2026,1213.9369 2361.0938,1214.0115 2279.1102,1214.0679 2282.1093,1221.758 2265.0988,1175.1013 2247.7283,1127.4572 2265.5181,1144.2075 2362.9571,1106.0958 2436.6004,1077.2911 2428.9417,1088.0222 2448.1516,1153.7506 Z" />
   <path
   class="hold"
   id="hold_137"
   d="M 1656.8176,1094.9356 C 1675.4596,1117.9474 1665.4802,1152.0501 1668.3943,1193.0946 1670.8328,1227.441 1654.2189,1232.2709 1642.4547,1205.8478 1623.4412,1163.1425 1609.9803,1131.4519 1589.4958,1084.9603 1563.3878,1025.7058 1616.5614,1045.2429 1656.8176,1094.9356 Z" />
   <path
   class="hold"
   id="hold_138"
   d="M 1991.9065,1078.9858 C 2069.5683,1146.0292 2056.7388,1137.0068 2027.1325,1176.383 2008.8086,1200.7537 1963.9095,1208.3579 1922.536,1155.2318 1873.2015,1091.8835 1859.2155,1080.4084 1888.6645,1048.937 1927.3584,1007.5855 1916.8022,1014.1503 1991.9065,1078.9858 Z" />
   <path
   class="hold"
   id="hold_139"
   d="M 1402.84,1140.8848 C 1335.9526,1117.7901 1370.896,1099.6203 1396.9379,1069.9676 1450.4542,1009.0319 1445.6169,1019.3342 1446.9766,1039.7641 1449.7904,1082.0433 1446.3878,1085.4512 1446.8074,1116.211 1447.6916,1181.0106 1431.8506,1150.9012 1402.84,1140.8848 Z" />
   <path
   class="hold"
   id="hold_140"
   d="M 1840.1786,1047.2089 C 1817.627,1066.3617 1788.0642,1071.2015 1747.3242,1075.2431 1702.8194,1079.6582 1619.5171,1070.9231 1669.4399,1053.9306 1710.2678,1040.0334 1747.5266,1030.4436 1796.8957,1019.356 1849.6912,1007.4988 1866.6758,1024.7051 1840.1786,1047.2089 Z" />
   <path
   class="hold"
   id="hold_141"
   d="M 2071.2215,1030.6108 C 2096.0289,981.63792 2141.4077,1022.9135 2160.1076,1045.6668 2178.8074,1068.4204 2201.0533,1095.9172 2157.0341,1093.3897 2123.4784,1091.463 2107.2499,1088.6098 2068.6138,1083.8023 2035.9638,1079.7396 2062.4758,1047.8759 2071.2215,1030.6108 Z" />
   <path
   class="hold"
   id="hold_142"
   d="M 1528.4353,1000.9617 C 1497.4276,1019.6175 1440.2076,1024.239 1449.8412,1004.4684 1458.8908,985.89598 1490.3032,958.71554 1513.9302,949.0924 1538.3191,939.15904 1560.2573,930.34184 1565.1467,938.7145 1576.0142,957.32412 1559.4429,982.30594 1528.4353,1000.9617 Z" />
   <path
   class="hold"
   id="hold_143"
   d="M 1714.2102,960.1811 C 1713.1237,982.94866 1703.1302,979.32767 1672.3999,1004.8547 1644.5414,1027.9961 1648.6634,1004.1238 1648.6634,967.79954 1648.6634,931.47536 1652.5241,923.62803 1680.498,932.41571 1710.865,941.955 1714.8464,946.84937 1714.2102,960.1811 Z" />
   <path
   class="hold"
   id="hold_144"
   d="M 2218.1744,983.47074 C 2176.7971,1022.2287 2184.3972,1016.8695 2168.0259,999.54956 2149.0542,979.47818 2147.4156,985.73994 2187.5842,949.74565 2226.7069,914.68857 2221.2359,913.37327 2239.4416,933.67193 2258.0652,954.43642 2253.8421,950.06099 2218.1744,983.47074 Z" />
   <path
   class="hold"
   id="hold_145"
   d="M 1969.5753,972.8331 C 1970.0799,1009.6166 1975.5668,1014.5438 1901.9166,1016.1675 1862.5876,1017.0346 1829.7446,1017.9844 1844.0609,1002.1494 1874.3548,968.64171 1906.2498,931.85639 1943.2001,894.83217 1990.294,847.64407 1968.6629,906.30721 1969.5753,972.8331 Z" />
   <path
   class="hold"
   id="hold_146"
   d="M 1283.3449,926.81739 C 1256.3534,914.79313 1252.4498,918.57297 1250.521,877.46976 1247.755,818.51688 1250.8573,805.29009 1266.3698,818.56143 1300.6945,847.92692 1377.0626,927.01045 1415.0783,960.55593 1506.7529,1041.451 1326.4907,946.03812 1283.3449,926.81739 Z" />
   <path
   class="hold"
   id="hold_147"
   d="M 2057.7391,907.90059 C 2057.9836,1014.7832 2059.3578,997.38047 2033.1227,998.30398 2002.72,999.37409 2006.5414,1009.5946 2007.6195,907.90059 2008.6696,808.85459 2003.5089,814.82921 2033.5208,815.11686 2064.2215,815.41116 2057.5285,815.76644 2057.7391,907.90059 Z" />
   <path
   class="hold"
   id="hold_148"
   d="M 1923.8432,809.70177 C 1923.8432,841.6126 1904.8012,883.9513 1854.984,883.9513 1805.1669,883.9513 1780.0031,845.35858 1780.0031,813.04654 1780.0031,780.7345 1802.9308,743.31687 1851.1513,743.31687 1899.3718,743.31687 1923.8432,777.79094 1923.8432,809.70177 Z" />
   <path
   class="hold"
   id="hold_149"
   d="M 1529.2275,768.48919 C 1558.149,762.52559 1559.2327,763.53413 1598.8134,774.04232 1652.0066,788.1645 1666.9321,813.72208 1639.2898,815.29563 1596.2534,817.74548 1540.7697,816.66389 1490.205,815.172 1425.7594,813.27058 1497.6115,775.00839 1529.2275,768.48919 Z" />
   <path
   class="hold"
   id="hold_150"
   d="M 2287.9923,747.88392 C 2287.9923,784.20811 2276.405,819.72367 2254.9274,815.4128 2235.0039,811.41383 2238.7703,780.10589 2238.7703,743.78169 2238.7703,707.45746 2250.5163,684.96011 2260.1746,685.04331 2281.6419,685.22822 2287.9923,711.55971 2287.9923,747.88392 Z" />
   <path
   class="hold"
   id="hold_151"
   d="M 2148.1876,789.06753 C 2175.4886,812.86676 2158.5265,816.74607 2098.2149,816.74607 2033.822,816.74607 2052.9063,801.36432 2017.9245,735.15235 2000.9751,703.07123 1945.7638,609.4274 1986.8561,637.73569 2019.1824,660.005 2099.7962,746.88298 2148.1876,789.06753 Z" />
   <path
   class="hold"
   id="hold_152"
   d="M 1449.744,704.72525 C 1450.1708,814.36713 1461.4818,820.36114 1382.9495,792.42404 1318.5908,769.52911 1307.2908,794.75882 1340.5052,695.90791 1374.5036,594.72478 1357.9054,587.4982 1408.2903,601.98845 1461.8988,617.40581 1449.3761,610.21251 1449.744,704.72525 Z" />
   <path
   class="hold"
   id="hold_153"
   d="M 1824.7179,641.48902 C 1791.8329,656.55051 1781.6313,663.09875 1751.0797,667.80913 1701.8385,675.40095 1686.0194,673.75499 1674.5141,660.85383 1646.2395,629.14865 1718.1635,616.92347 1767.9806,616.92347 1817.7977,616.92347 1901.7965,606.1868 1824.7179,641.48902 Z" />
   <path
   class="hold"
   id="hold_154"
   d="M 2201.5033,623.7341 C 2200.1161,654.67417 2178.6094,654.34284 2128.7923,654.34284 2078.9752,654.34284 2051.2455,664.55881 2054.9153,628.42238 2057.8305,599.71662 2080.4379,597.27552 2102.556,601.32985 2151.6391,610.32703 2201.9179,614.48689 2201.5033,623.7341 Z" />
   <path
   class="hold"
   id="hold_155"
   d="M 2039.6442,603.16547 C 2039.6442,639.48969 1994.2976,625.85089 1940.0102,624.76332 1830.8716,622.57689 1854.4453,613.76265 1852.8383,569.6233 1850.6472,509.4358 1857.9365,509.97535 1937.2514,532.21851 1990.7989,547.23542 2039.6442,566.84129 2039.6442,603.16547 Z" />
   <path
   class="hold"
   id="hold_156"
   d="M 1654.5017,576.22435 C 1655.8327,612.52395 1645.1569,615.27626 1595.3397,615.27626 1545.5226,615.27625 1501.7483,618.56881 1515.4367,603.84879 1544.4025,572.70059 1583.5042,533.56156 1620.066,499.54961 1666.6647,456.20072 1653.1188,538.51018 1654.5017,576.22435 Z" />
   <path
   class="hold"
   id="hold_157"
   d="M 1786.4843,517.20499 C 1786.4843,553.52917 1775.2808,569.68442 1758.0746,568.53144 1729.3338,566.60553 1727.2698,554.01065 1727.2698,517.68647 1727.2698,481.36224 1734.2152,469.38915 1758.0746,469.73034 1773.9094,469.95675 1786.4843,480.88078 1786.4843,517.20499 Z" />
   <path
   class="hold"
   id="hold_158"
   d="M 2260.0924,508.53774 C 2261.5775,607.54278 2261.3315,596.60478 2215.5206,597.55212 2162.4326,598.6499 2165.3946,612.32808 2165.6968,507.47406 2165.9666,413.83517 2159.0481,414.6591 2211.4539,414.95419 2265.0623,415.25607 2258.675,414.03502 2260.0924,508.53774 Z" />
   <path
   class="hold"
   id="hold_159"
   d="M 1470.3022,524.73831 C 1477.0178,569.40522 1467.9451,559.57195 1430.3782,565.94265 1403.7511,570.45817 1410.7841,542.99003 1410.7841,497.81601 1410.7841,452.64195 1412.2192,414.95938 1439.2227,414.95933 1453.2286,414.9593 1463.2128,477.58476 1470.3022,524.73831 Z" />
   <path
   class="hold"
   id="hold_160"
   d="M 1564.8192,378.5607 C 1555.7483,393.08183 1525.2233,404.68952 1504.5908,410.23941 1456.467,423.1841 1450.3002,424.76175 1451.8557,388.4712 1453.039,360.86824 1472.4473,365.83139 1520.7607,353.62113 1567.8171,341.72856 1584.0358,347.79784 1564.8192,378.5607 Z" />
   <path
   class="hold"
   id="hold_161"
   d="M 1711.6364,367.89133 C 1733.2574,396.99713 1750.4244,414.89918 1700.6073,414.89918 1635.9855,414.89918 1656.1999,419.8161 1621.9917,362.71536 1591.991,312.63785 1582.7402,301.96573 1646.5381,322.82454 1677.7881,333.04178 1696.188,347.09509 1711.6364,367.89133 Z" />
   <path
   class="hold"
   id="hold_162"
   d="M 2038.4119,350.48648 C 2072.0864,435.42889 2074.6675,414.8411 1943.0606,415.61028 1861.0784,416.08943 1864.032,425.23745 1847.0656,371.83742 1827.4556,310.11671 1856.3392,336.77865 1955.2906,302.83168 2037.2275,274.72176 2007.5743,272.69993 2038.4119,350.48648 Z" />
   <path
   class="hold"
   id="hold_163"
   d="M 1648.0146,249.80872 C 1627.5232,320.3042 1628.089,311.50631 1561.41,290.26873 1483.9877,265.60943 1448.4355,263.51747 1452.8354,227.2583 1456.2595,199.04097 1526.3862,198.17658 1576.1888,199.38534 1665.5759,201.55483 1658.1494,214.94222 1648.0146,249.80872 Z" />
   <path
   class="hold"
   id="hold_164"
   d="M 2220.4994,267.99912 C 2239.7803,298.72135 2211.3513,308.81286 2156.7285,271.77985 2115.4282,243.7791 2086.9506,238.30791 2060.9201,227.34328 2027.5904,213.30405 2109.4128,178.06683 2151.122,205.44857 2188.5246,230.0031 2205.2816,243.7509 2220.4994,267.99912 Z" />
   <path
   class="hold"
   id="hold_165"
   d="M 1855.5511,235.84193 C 1857.4813,267.61412 1842.8446,262.79283 1761.4871,264.08681 1711.6763,264.87904 1669.7135,268.25497 1668.7106,237.13592 1667.4768,198.85573 1679.4894,213.78704 1766.6366,212.77302 1846.0617,211.84888 1853.347,199.56227 1855.5511,235.84193 Z" />
   <path
   class="hold"
   id="hold_208"
   d="M 1325.9118,411.84379 C 1325.9118,443.75462 1302.2916,487.24375 1252.4745,487.24375 1202.6575,487.24375 1178.6381,441.74855 1178.6381,409.43651 1178.6381,377.12447 1203.8549,340.85725 1252.0754,340.85725 1300.2958,340.85725 1325.9118,379.93296 1325.9118,411.84379 Z"
   style="fill:#cccccc;stroke:#333333;stroke-width:2" />
   <path
   class="hold"
   id="hold_205"
   d="M 1322.2992,1210.9814 C 1322.2992,1242.8921 1298.6791,1286.3815 1248.862,1286.3815 1199.0448,1286.3815 1175.0257,1240.8862 1175.0257,1208.5741 1175.0258,1176.262 1200.2424,1139.9949 1248.4628,1139.9949 1296.6833,1139.9949 1322.2992,1179.0706 1322.2992,1210.9814 Z"
   style="fill:#cccccc;stroke:#333333;stroke-width:2" />
   <path
   class="hold"
   id="hold_202"
   d="M 1317.7746,2220.9888 C 1317.7746,2252.8996 1294.1545,2296.3889 1244.3373,2296.3889 1194.5203,2296.3889 1170.501,2250.8936 1170.5011,2218.5816 1170.5011,2186.2695 1195.7179,2150.0025 1243.9384,2150.0025 1292.1588,2150.0025 1317.7746,2189.078 1317.7746,2220.9888 Z"
   style="fill:#cccccc;stroke:#333333;stroke-width:2" />
   <path
   class="hold"
   id="hold_209"
   d="M 1347.909,177.90169 C 1347.4782,231.89988 1298.733,244.26849 1252.9997,244.2685 1207.266,244.26849 1153.6177,236.29179 1153.0479,173.84701 1152.6205,127.05232 1154.9426,129.23352 1252.6124,128.72669 1354.9906,128.19542 1348.326,125.61765 1347.909,177.90169 Z"
   style="fill:#cccccc;stroke:#333333;stroke-width:2" />
   <path
   class="hold"
   id="hold_207"
   d="M 1294.408,707.42992 C 1294.8347,817.07179 1297.2344,799.21987 1251.4234,800.16719 1198.3355,801.26498 1205.0081,811.74925 1206.8908,707.42992 1208.7244,605.82693 1199.713,611.95575 1252.1188,612.25087 1305.7274,612.55275 1294.04,612.91719 1294.408,707.42992 Z"
   style="fill:#cccccc;stroke:#333333;stroke-width:2" />
   <path
   class="hold"
   id="hold_206"
   d="M 1251.176,1004.7215 C 1357.5338,1005.221 1340.3633,1001.423 1342.8611,1047.4112 1345.7557,1100.7047 1351.3253,1086.3349 1247.5367,1087.9868 1146.4508,1089.5956 1152.9695,1103.7531 1151.3641,1051.1013 1149.8435,1001.225 1157.1482,1004.28 1251.176,1004.7215 Z"
   style="fill:#cccccc;stroke:#333333;stroke-width:2" />
   <path
   class="hold"
   id="hold_204"
   d="M 1250.232,1328.473 C 1359.2343,1324.3203 1341.4025,1322.5161 1343.9005,1368.5044 1346.7949,1421.7979 1356.9928,1414.7387 1253.2042,1416.3904 1152.1183,1417.9993 1158.5183,1426.8437 1157.0318,1374.1882 1155.5112,1320.3243 1156.2705,1332.0526 1250.232,1328.473 Z"
   style="fill:#cccccc;stroke:#333333;stroke-width:2" />
   <path
   class="hold"
   id="hold_203"
   d="M 1254.3392,1461.8278 C 1363.3479,1457.8489 1344.6883,1455.8708 1347.1862,1501.8592 1350.0809,1555.1527 1320.0421,1579.0547 1260.597,1577.8153 1197.3195,1576.4961 1162.6255,1562.6753 1161.1391,1510.0197 1159.6183,1456.1559 1156.2709,1465.4075 1254.3392,1461.8278 Z"
   style="fill:#cccccc;stroke:#333333;stroke-width:2" />
   <path
   class="hold"
   id="hold_201"
   d="M 1246.9516,2501.7846 C 1137.8813,2503.2888 1155.6644,2505.5254 1154.2729,2459.49 1152.66,2406.1417 1142.2954,2412.9513 1246.0934,2413.8207 1347.1886,2414.6674 1341.003,2405.67 1341.2232,2458.3463 1341.4489,2512.2312 1340.9717,2500.488 1246.9516,2501.7846 Z"
   style="fill:#cccccc;stroke:#333333;stroke-width:2" />
   <path
   class="hold"
   id="hold_200"
   d="M 1272.1146,2706.2682 C 1272.374,2816.1612 1273.8327,2798.2686 1245.9858,2799.2177 1213.7155,2800.3179 1217.7716,2810.8266 1218.9161,2706.2682 1220.0307,2604.4327 1214.5528,2610.5754 1246.4085,2610.8714 1278.9952,2611.1739 1271.8909,2611.5392 1272.1146,2706.2682 Z"
   style="fill:#cccccc;stroke:#333333;stroke-width:2" />
</svg>