<?xml version="1.0" encoding="UTF-8" standalone="no"?>
<svg
   width="2500"
   height="3330"
   viewBox="0 0 2500 3330"
   version="1.1"
   id="svg1"
   xml:space="preserve"
   xmlns="http://www.w3.org/2000/svg"
   xmlns:svg="http://www.w3.org/2000/svg"><path
   id="path1-90-1-8"
   style="fill:#e6e6e6;fill-opacity:0.625;stroke:#ff0000;stroke-width:2;stroke-linecap:square"
   d="M 2490.2965,2419.72 A 34.877762,34.877762 0 0 1 2455.4187,2454.5977 34.877762,34.877762 0 0 1 2420.5409,2419.72 34.877762,34.877762 0 0 1 2455.4187,2384.8422 34.877762,34.877762 0 0 1 2490.2965,2419.72 Z" />
   <defs
   id="defs1"><style
     id="style1">
      .hold {
        fill: #cccccc;
        stroke: #333333;
        stroke-width: 2;
        cursor: pointer;
      }
      .hold:hover {
        fill: #aaaaaa;
      }
    </style></defs>
   
   
   
   
   
   
   
   
   
   
   
   
   
   
   
   
   
   
   
   
   
   
   
   
   
   
   
   
   
   
   
   
   
   
   
   
   
   
   
   
   
   
   
   
   
   
   
   
   
   
   
   
   
   
   
   
   
   
   
   
   
   
   
   
   
   
   
   
   
   
   
   
   
   
   
   
   
   
   
   
   
   
   
   
   
   
   
   
   
   
   
   
   
   
   
   
   
   
   
   
   
   
   
   
   
   
   
   
   
   
   
   
   
   
   
   
   
   
   
   
   
   
   
   
   
   
   
   
   
   
   
   
   
   
   
   
   
   
   
   
   
   
<path
   id="path1"
   style="fill:#e6e6e6;fill-opacity:0.625;stroke:#ff0000;stroke-width:2;stroke-linecap:square"
   d="M 77.229332,3019.4177 A 34.877762,34.877762 0 0 1 42.35157,3054.2955 34.877762,34.877762 0 0 1 7.4738083,3019.4177 34.877762,34.877762 0 0 1 42.35157,2984.54 34.877762,34.877762 0 0 1 77.229332,3019.4177 Z" /><path
   id="path1-0"
   style="fill:#e6e6e6;fill-opacity:0.625;stroke:#ff0000;stroke-width:2;stroke-linecap:square"
   d="M 381.79277,3307.8777 A 34.877762,34.877762 0 0 1 346.91501,3342.7554 34.877762,34.877762 0 0 1 312.03725,3307.8777 34.877762,34.877762 0 0 1 346.91501,3272.9999 34.877762,34.877762 0 0 1 381.79277,3307.8777 Z" /><path
   id="path1-0-3"
   style="fill:#e6e6e6;fill-opacity:0.625;stroke:#ff0000;stroke-width:2;stroke-linecap:square"
   d="M 80.440479,3307.8777 A 34.877762,34.877762 0 0 1 45.562717,3342.7554 34.877762,34.877762 0 0 1 10.684956,3307.8777 34.877762,34.877762 0 0 1 45.562717,3272.9999 34.877762,34.877762 0 0 1 80.440479,3307.8777 Z" /><path
   id="path1-1"
   style="fill:#e6e6e6;fill-opacity:0.625;stroke:#ff0000;stroke-width:2;stroke-linecap:square"
   d="M 677.66585,3307.8777 A 34.877762,34.877762 0 0 1 642.78809,3342.7554 34.877762,34.877762 0 0 1 607.91032,3307.8777 34.877762,34.877762 0 0 1 642.78809,3272.9999 34.877762,34.877762 0 0 1 677.66585,3307.8777 Z" /><path
   id="path1-15"
   style="fill:#e6e6e6;fill-opacity:0.625;stroke:#ff0000;stroke-width:2;stroke-linecap:square"
   d="M 973.72523,3307.8777 A 34.877762,34.877762 0 0 1 938.84747,3342.7554 34.877762,34.877762 0 0 1 903.96971,3307.8777 34.877762,34.877762 0 0 1 938.84747,3272.9999 34.877762,34.877762 0 0 1 973.72523,3307.8777 Z" /><path
   id="path1-8"
   style="fill:#e6e6e6;fill-opacity:0.625;stroke:#ff0000;stroke-width:2;stroke-linecap:square"
   d="M 1275.2689,3307.8777 A 34.877762,34.877762 0 0 1 1240.3911,3342.7554 34.877762,34.877762 0 0 1 1205.5134,3307.8777 34.877762,34.877762 0 0 1 1240.3911,3272.9999 34.877762,34.877762 0 0 1 1275.2689,3307.8777 Z" /><path
   id="path1-9"
   style="fill:#e6e6e6;fill-opacity:0.625;stroke:#ff0000;stroke-width:2;stroke-linecap:square"
   d="M 1572.2119,3307.8777 A 34.877762,34.877762 0 0 1 1537.3341,3342.7554 34.877762,34.877762 0 0 1 1502.4563,3307.8777 34.877762,34.877762 0 0 1 1537.3341,3272.9999 34.877762,34.877762 0 0 1 1572.2119,3307.8777 Z" /><path
   id="path1-5"
   style="fill:#e6e6e6;fill-opacity:0.625;stroke:#ff0000;stroke-width:2;stroke-linecap:square"
   d="M 1878.7556,3307.8777 A 34.877762,34.877762 0 0 1 1843.8778,3342.7554 34.877762,34.877762 0 0 1 1809,3307.8777 34.877762,34.877762 0 0 1 1843.8778,3272.9999 34.877762,34.877762 0 0 1 1878.7556,3307.8777 Z" /><path
   id="path1-2"
   style="fill:#e6e6e6;fill-opacity:0.625;stroke:#ff0000;stroke-width:2;stroke-linecap:square"
   d="M 2189.4737,3307.8777 A 34.877762,34.877762 0 0 1 2154.5959,3342.7554 34.877762,34.877762 0 0 1 2119.7182,3307.8777 34.877762,34.877762 0 0 1 2154.5959,3272.9999 34.877762,34.877762 0 0 1 2189.4737,3307.8777 Z" /><path
   id="path1-0-7"
   style="fill:#e6e6e6;fill-opacity:0.625;stroke:#ff0000;stroke-width:2;stroke-linecap:square"
   d="M 380.10637,2715.196 A 34.877762,34.877762 0 0 1 345.22861,2750.0738 34.877762,34.877762 0 0 1 310.35085,2715.196 34.877762,34.877762 0 0 1 345.22861,2680.3183 34.877762,34.877762 0 0 1 380.10637,2715.196 Z" /><path
   id="path1-15-3"
   style="fill:#e6e6e6;fill-opacity:0.625;stroke:#ff0000;stroke-width:2;stroke-linecap:square"
   d="M 984.03889,2715.196 A 34.877762,34.877762 0 0 1 949.16113,2750.0738 34.877762,34.877762 0 0 1 914.28337,2715.196 34.877762,34.877762 0 0 1 949.16113,2680.3183 34.877762,34.877762 0 0 1 984.03889,2715.196 Z" /><path
   id="path1-9-8"
   style="fill:#e6e6e6;fill-opacity:0.625;stroke:#ff0000;stroke-width:2;stroke-linecap:square"
   d="M 1584.5255,2715.196 A 34.877762,34.877762 0 0 1 1549.6477,2750.0738 34.877762,34.877762 0 0 1 1514.7699,2715.196 34.877762,34.877762 0 0 1 1549.6477,2680.3183 34.877762,34.877762 0 0 1 1584.5255,2715.196 Z" /><path
   id="path1-2-4"
   style="fill:#e6e6e6;fill-opacity:0.625;stroke:#ff0000;stroke-width:2;stroke-linecap:square"
   d="M 2199.7874,2715.196 A 34.877762,34.877762 0 0 1 2164.9097,2750.0738 34.877762,34.877762 0 0 1 2130.0319,2715.196 34.877762,34.877762 0 0 1 2164.9097,2680.3183 34.877762,34.877762 0 0 1 2199.7874,2715.196 Z" /><path
   id="path1-0-0"
   style="fill:#e6e6e6;fill-opacity:0.625;stroke:#ff0000;stroke-width:2;stroke-linecap:square"
   d="M 381.51692,2124.6714 A 34.877762,34.877762 0 0 1 346.63916,2159.5491 34.877762,34.877762 0 0 1 311.7614,2124.6714 34.877762,34.877762 0 0 1 346.63916,2089.7936 34.877762,34.877762 0 0 1 381.51692,2124.6714 Z" /><path
   id="path1-15-9"
   style="fill:#e6e6e6;fill-opacity:0.625;stroke:#ff0000;stroke-width:2;stroke-linecap:square"
   d="M 985.44942,2124.6714 A 34.877762,34.877762 0 0 1 950.57166,2159.5491 34.877762,34.877762 0 0 1 915.69389,2124.6714 34.877762,34.877762 0 0 1 950.57166,2089.7936 34.877762,34.877762 0 0 1 985.44942,2124.6714 Z" /><path
   id="path1-15-9-0"
   style="fill:#e6e6e6;fill-opacity:0.625;stroke:#ff0000;stroke-width:2;stroke-linecap:square"
   d="M 1079.2661,1929.2841 A 34.877762,34.877762 0 0 1 1044.3883,1964.1618 34.877762,34.877762 0 0 1 1009.5105,1929.2841 34.877762,34.877762 0 0 1 1044.3883,1894.4063 34.877762,34.877762 0 0 1 1079.2661,1929.2841 Z" /><path
   id="path1-15-9-6"
   style="fill:#e6e6e6;fill-opacity:0.625;stroke:#ff0000;stroke-width:2;stroke-linecap:square"
   d="M 992.8011,1714.4128 A 34.877762,34.877762 0 0 1 957.92334,1749.2906 34.877762,34.877762 0 0 1 923.04558,1714.4128 34.877762,34.877762 0 0 1 957.92334,1679.5351 34.877762,34.877762 0 0 1 992.8011,1714.4128 Z" /><path
   id="path1-15-9-9"
   style="fill:#e6e6e6;fill-opacity:0.625;stroke:#ff0000;stroke-width:2;stroke-linecap:square"
   d="M 1597.5654,1707.1061 A 34.877762,34.877762 0 0 1 1562.6876,1741.9838 34.877762,34.877762 0 0 1 1527.8099,1707.1061 34.877762,34.877762 0 0 1 1562.6876,1672.2283 34.877762,34.877762 0 0 1 1597.5654,1707.1061 Z" /><path
   id="path1-15-9-3"
   style="fill:#e6e6e6;fill-opacity:0.625;stroke:#ff0000;stroke-width:2;stroke-linecap:square"
   d="M 1484.7596,1916.6001 A 34.877762,34.877762 0 0 1 1449.8818,1951.4779 34.877762,34.877762 0 0 1 1415.0041,1916.6001 34.877762,34.877762 0 0 1 1449.8818,1881.7223 34.877762,34.877762 0 0 1 1484.7596,1916.6001 Z" /><path
   id="path1-15-9-8"
   style="fill:#e6e6e6;fill-opacity:0.625;stroke:#ff0000;stroke-width:2;stroke-linecap:square"
   d="M 579.4402,1920.4088 A 34.877762,34.877762 0 0 1 544.56244,1955.2866 34.877762,34.877762 0 0 1 509.68468,1920.4088 34.877762,34.877762 0 0 1 544.56244,1885.5311 34.877762,34.877762 0 0 1 579.4402,1920.4088 Z" /><path
   id="path1-15-9-61"
   style="fill:#e6e6e6;fill-opacity:0.625;stroke:#ff0000;stroke-width:2;stroke-linecap:square"
   d="M 276.32411,1624.1805 A 34.877762,34.877762 0 0 1 241.44635,1659.0583 34.877762,34.877762 0 0 1 206.56859,1624.1805 34.877762,34.877762 0 0 1 241.44635,1589.3028 34.877762,34.877762 0 0 1 276.32411,1624.1805 Z" /><path
   id="path1-15-9-96"
   style="fill:#e6e6e6;fill-opacity:0.625;stroke:#ff0000;stroke-width:2;stroke-linecap:square"
   d="M 85.518745,1823.2142 A 34.877762,34.877762 0 0 1 50.640984,1858.092 34.877762,34.877762 0 0 1 15.763222,1823.2142 34.877762,34.877762 0 0 1 50.640984,1788.3365 34.877762,34.877762 0 0 1 85.518745,1823.2142 Z" /><path
   id="path1-15-9-4"
   style="fill:#e6e6e6;fill-opacity:0.625;stroke:#ff0000;stroke-width:2;stroke-linecap:square"
   d="M 878.3907,1323.2512 A 34.877762,34.877762 0 0 1 843.51294,1358.129 34.877762,34.877762 0 0 1 808.63518,1323.2512 34.877762,34.877762 0 0 1 843.51294,1288.3735 34.877762,34.877762 0 0 1 878.3907,1323.2512 Z" /><path
   id="path1-15-9-1"
   style="fill:#e6e6e6;fill-opacity:0.625;stroke:#ff0000;stroke-width:2;stroke-linecap:square"
   d="M 1691.1784,1317.9108 A 34.877762,34.877762 0 0 1 1656.3007,1352.7885 34.877762,34.877762 0 0 1 1621.4229,1317.9108 34.877762,34.877762 0 0 1 1656.3007,1283.033 34.877762,34.877762 0 0 1 1691.1784,1317.9108 Z" /><path
   id="path1-15-9-43"
   style="fill:#e6e6e6;fill-opacity:0.625;stroke:#ff0000;stroke-width:2;stroke-linecap:square"
   d="M 1992.7469,1912.2802 A 34.877762,34.877762 0 0 1 1957.8691,1947.1579 34.877762,34.877762 0 0 1 1922.9914,1912.2802 34.877762,34.877762 0 0 1 1957.8691,1877.4024 34.877762,34.877762 0 0 1 1992.7469,1912.2802 Z" /><path
   id="path1-15-9-2"
   style="fill:#e6e6e6;fill-opacity:0.625;stroke:#ff0000;stroke-width:2;stroke-linecap:square"
   d="M 2488.64,1824.2802 A 34.877762,34.877762 0 0 1 2453.7622,1859.1579 34.877762,34.877762 0 0 1 2418.8844,1824.2802 34.877762,34.877762 0 0 1 2453.7622,1789.4024 34.877762,34.877762 0 0 1 2488.64,1824.2802 Z" /><path
   id="path1-15-9-99"
   style="fill:#e6e6e6;fill-opacity:0.625;stroke:#ff0000;stroke-width:2;stroke-linecap:square"
   d="M 2286.5186,1622.2551 A 34.877762,34.877762 0 0 1 2251.6409,1657.1329 34.877762,34.877762 0 0 1 2216.7631,1622.2551 34.877762,34.877762 0 0 1 2251.6409,1587.3774 34.877762,34.877762 0 0 1 2286.5186,1622.2551 Z" /><path
   id="path1-9-80"
   style="fill:#e6e6e6;fill-opacity:0.625;stroke:#ff0000;stroke-width:2;stroke-linecap:square"
   d="M 1589.936,2122.6714 A 34.877762,34.877762 0 0 1 1555.0582,2157.5491 34.877762,34.877762 0 0 1 1520.1805,2122.6714 34.877762,34.877762 0 0 1 1555.0582,2087.7936 34.877762,34.877762 0 0 1 1589.936,2122.6714 Z" /><path
   id="path1-2-5"
   style="fill:#e6e6e6;fill-opacity:0.625;stroke:#ff0000;stroke-width:2;stroke-linecap:square"
   d="M 2201.1978,2126.6714 A 34.877762,34.877762 0 0 1 2166.3201,2161.5491 34.877762,34.877762 0 0 1 2131.4423,2126.6714 34.877762,34.877762 0 0 1 2166.3201,2091.7936 34.877762,34.877762 0 0 1 2201.1978,2126.6714 Z" /><path
   id="path1-90"
   style="fill:#e6e6e6;fill-opacity:0.625;stroke:#ff0000;stroke-width:2;stroke-linecap:square"
   d="M 2471.7601,3307.8777 A 34.877762,34.877762 0 0 1 2436.8823,3342.7554 34.877762,34.877762 0 0 1 2402.0046,3307.8777 34.877762,34.877762 0 0 1 2436.8823,3272.9999 34.877762,34.877762 0 0 1 2471.7601,3307.8777 Z" /><path
   id="path1-1-4"
   style="fill:#e6e6e6;fill-opacity:0.625;stroke:#ff0000;stroke-width:2;stroke-linecap:square"
   d="M 675.28127,3011.8782 A 34.877762,34.877762 0 0 1 640.4035,3046.7559 34.877762,34.877762 0 0 1 605.52574,3011.8782 34.877762,34.877762 0 0 1 640.4035,2977.0004 34.877762,34.877762 0 0 1 675.28127,3011.8782 Z" /><path
   id="path1-8-5"
   style="fill:#e6e6e6;fill-opacity:0.625;stroke:#ff0000;stroke-width:2;stroke-linecap:square"
   d="M 1276.8842,3011.8782 A 34.877762,34.877762 0 0 1 1242.0065,3046.7559 34.877762,34.877762 0 0 1 1207.1287,3011.8782 34.877762,34.877762 0 0 1 1242.0065,2977.0004 34.877762,34.877762 0 0 1 1276.8842,3011.8782 Z" /><path
   id="path1-5-1"
   style="fill:#e6e6e6;fill-opacity:0.625;stroke:#ff0000;stroke-width:2;stroke-linecap:square"
   d="M 1880.371,3011.8782 A 34.877762,34.877762 0 0 1 1845.4933,3046.7559 34.877762,34.877762 0 0 1 1810.6155,3011.8782 34.877762,34.877762 0 0 1 1845.4933,2977.0004 34.877762,34.877762 0 0 1 1880.371,3011.8782 Z" /><path
   id="path1-90-1"
   style="fill:#e6e6e6;fill-opacity:0.625;stroke:#ff0000;stroke-width:2;stroke-linecap:square"
   d="M 2479.3753,3011.8782 A 34.877762,34.877762 0 0 1 2444.4976,3046.7559 34.877762,34.877762 0 0 1 2409.6198,3011.8782 34.877762,34.877762 0 0 1 2444.4976,2977.0004 34.877762,34.877762 0 0 1 2479.3753,3011.8782 Z" /><path
   id="path1-3"
   style="fill:#e6e6e6;fill-opacity:0.625;stroke:#ff0000;stroke-width:2;stroke-linecap:square"
   d="M 82.150478,2423.2595 A 34.877762,34.877762 0 0 1 47.272717,2458.1373 34.877762,34.877762 0 0 1 12.394955,2423.2595 34.877762,34.877762 0 0 1 47.272717,2388.3818 34.877762,34.877762 0 0 1 82.150478,2423.2595 Z" /><path
   id="path1-1-4-4"
   style="fill:#e6e6e6;fill-opacity:0.625;stroke:#ff0000;stroke-width:2;stroke-linecap:square"
   d="M 678.20235,2421.72 A 34.877762,34.877762 0 0 1 643.32458,2456.5977 34.877762,34.877762 0 0 1 608.44682,2421.72 34.877762,34.877762 0 0 1 643.32458,2386.8422 34.877762,34.877762 0 0 1 678.20235,2421.72 Z" /><path
   id="path1-8-5-7"
   style="fill:#e6e6e6;fill-opacity:0.625;stroke:#ff0000;stroke-width:2;stroke-linecap:square"
   d="M 1083.5686,2418.9482 A 34.877762,34.877762 0 0 1 1048.6908,2453.826 34.877762,34.877762 0 0 1 1013.813,2418.9482 34.877762,34.877762 0 0 1 1048.6908,2384.0705 34.877762,34.877762 0 0 1 1083.5686,2418.9482 Z" /><path
   id="path1-8-5-7-8"
   style="fill:#e6e6e6;fill-opacity:0.625;stroke:#ff0000;stroke-width:2;stroke-linecap:square"
   d="M 1489.2998,2423.106 A 34.877762,34.877762 0 0 1 1454.422,2457.9837 34.877762,34.877762 0 0 1 1419.5442,2423.106 34.877762,34.877762 0 0 1 1454.422,2388.2282 34.877762,34.877762 0 0 1 1489.2998,2423.106 Z" /><path
   id="path1-5-1-9"
   style="fill:#e6e6e6;fill-opacity:0.625;stroke:#ff0000;stroke-width:2;stroke-linecap:square"
   d="M 1887.2922,2417.72 A 34.877762,34.877762 0 0 1 1852.4144,2452.5977 34.877762,34.877762 0 0 1 1817.5367,2417.72 34.877762,34.877762 0 0 1 1852.4144,2382.8422 34.877762,34.877762 0 0 1 1887.2922,2417.72 Z" /></svg>
