<?xml version="1.0" encoding="UTF-8" standalone="no"?>
<svg
   width="2500"
   height="3330"
   viewBox="0 0 2500 3330"
   version="1.1"
   id="svg1"
   xml:space="preserve"
   xmlns="http://www.w3.org/2000/svg"
   xmlns:svg="http://www.w3.org/2000/svg">
  <defs
   id="defs1"><style
     id="style1">
      .hold {
        fill: #cccccc;
        stroke: #333333;
        stroke-width: 2;
        cursor: pointer;
      }
    </style></defs>
<rect id="hold_0" class="hold" x="1780.2948126148149" y="711.6989055092592" width="146.1512411037038" height="143.39390701518528" />
<rect id="hold_1" class="hold" x="1445.5747720000004" y="322.14813779" width="126.29230119999966" height="66.17581521444447" />
<rect id="hold_2" class="hold" x="1597.0801237777775" y="285.78025728148145" width="135.66438270370418" height="107.15621044592609" />
<rect id="hold_3" class="hold" x="1717.6641375000004" y="439.62706522999997" width="63.104043981481254" height="102.79268320777771" />
<rect id="hold_4" class="hold" x="1701.5026552" y="1250.8352621777776" width="96.18701626666689" height="91.1438036777779" />
<rect id="hold_5" class="hold" x="1343.954392592593" y="1188.0310440296298" width="102.82378845925882" height="66.07663447037021" />
<rect id="hold_6" class="hold" x="1440.4793656" y="2189.7480163333335" width="68.91164690000005" height="122.7214882518515" />
<rect id="hold_7" class="hold" x="2197.376" y="1890.1227439814818" width="63.63973301481428" height="102.32969120370353" />
<rect id="hold_8" class="hold" x="2248.4042987111116" y="2490.956890922222" width="91.47102321481452" height="91.90847680370325" />
<rect id="hold_9" class="hold" x="1660.3393914074074" y="583.9263548" width="189.38207819259242" height="62.287640200000055" />
<rect id="hold_10" class="hold" x="1509.5883392000003" y="454.01091238000004" width="145.0263830222218" height="135.33389030518515" />
<rect id="hold_11" class="hold" x="1463.5553" y="731.4072772529628" width="186.42107680000026" height="59.35675416333356" />
<rect id="hold_12" class="hold" x="1363.9018128" y="993.0214521481482" width="86.98301312592639" height="142.59658675185187" />
<rect id="hold_13" class="hold" x="1242.7158396148147" y="783.625856957037" width="183.33111537407422" height="179.21523094518523" />
<rect id="hold_14" class="hold" x="1571.6733380111107" y="1023.8586407814814" width="93.36525452222327" height="176.87749569259267" />
<rect id="hold_15" class="hold" x="1360.819458662963" y="1511.4397106481483" width="164.98081633703714" height="80.45965701111095" />
<rect id="hold_16" class="hold" x="2241.039012" y="1656.0083396148148" width="92.72758559999966" height="140.08463444444442" />
<rect id="hold_17" class="hold" x="2045.6488364777779" y="1587.4129058000003" width="146.42695312222259" height="113.82208849999938" />
<rect id="hold_18" class="hold" x="1842.4753224000006" y="1191.771947614815" width="88.32390014444377" height="138.6336248851851" />
<rect id="hold_19" class="hold" x="1448.3042194666668" y="1388.9820272037039" width="90.02616905925902" height="68.06587650000006" />
<rect id="hold_20" class="hold" x="1442.4759100703704" y="1257.9345238814817" width="90.15529434444443" height="132.29704014814797" />
<rect id="hold_21" class="hold" x="2047.1943952000006" y="978.93583989" width="131.32120757777693" height="90.63811633962962" />
<rect id="hold_22" class="hold" x="1842.243685237037" y="1942.2237198925925" width="101.28949511851852" height="138.72881344074108" />
<rect id="hold_23" class="hold" x="1844.1837296444442" y="847.17188" width="130.34677035555592" height="142.00670185" />
<rect id="hold_24" class="hold" x="1442.737124074074" y="1679.6422631962962" width="88.7663004407409" height="147.50469328518534" />
<rect id="hold_25" class="hold" x="1513.7438816000001" y="1893.0782722222225" width="132.8553655222222" height="95.87634027777744" />
<rect id="hold_26" class="hold" x="1360.4835868333332" y="1994.5363827555557" width="88.0235930185188" height="166.2045978000001" />
<rect id="hold_27" class="hold" x="1241.7298" y="1785.8763411000002" width="105.59068294074063" height="240.4603751999996" />
<rect id="hold_28" class="hold" x="1501.234" y="2391.4253833333332" width="154.67047365925941" height="101.83508958518587" />
<rect id="hold_29" class="hold" x="1971.9348189629627" y="1909.3968121185185" width="121.27819108888889" height="83.62001413333337" />
<rect id="hold_30" class="hold" x="1647.1285944000003" y="986.0556426014815" width="199.45779490370364" height="66.34479446518537" />
<rect id="hold_31" class="hold" x="1843.9631925518515" y="2191.300921788889" width="138.88368939259317" height="126.4146488074075" />
<rect id="hold_32" class="hold" x="1960.8280709703702" y="2066.733193818518" width="87.21442578888923" height="127.93289178148234" />
<rect id="hold_33" class="hold" x="1405.196647377778" y="386.0168052" width="67.07888878518497" height="155.2684313740741" />
<rect id="hold_34" class="hold" x="1441.8702625" y="161.3608993637037" width="201.10355124814805" height="114.45217799629637" />
<rect id="hold_35" class="hold" x="1658.5314720000001" y="182.44457" width="184.74344960000008" height="53.34700033777784" />
<rect id="hold_36" class="hold" x="2070.6272102222224" y="162.80793103037036" width="175.63488337777835" height="105.3133574881482" />
<rect id="hold_37" class="hold" x="1833.0109899592592" y="260.5983070196296" width="211.8498060407403" height="127.84390267481484" />
<rect id="hold_38" class="hold" x="2251.21765192963" y="1061.845165937037" width="209.63925207036937" height="130.28683406296295" />
<rect id="hold_39" class="hold" x="2042.8338984000002" y="1386.5800194851852" width="184.07171180000023" height="114.483580514815" />
<rect id="hold_40" class="hold" x="2245.1769349925926" y="2094.0341721" width="184.6327970074076" height="115.36194224074097" />
<rect id="hold_41" class="hold" x="1248.4305579851853" y="1592.721221422222" width="192.84404201481448" height="201.5255098481482" />
<rect id="hold_42" class="hold" x="1640.2775715740738" y="1993.7221221037037" width="133.09402842592613" height="213.0972959518524" />
<rect id="hold_43" class="hold" x="1842.8366952000001" y="484.95397850370364" width="185.0356038" height="107.03279807037052" />
<rect id="hold_44" class="hold" x="1957.6488392" y="594.3229105244445" width="194.05405511111076" height="194.35698947555545" />
<rect id="hold_45" class="hold" x="2048.6350980444445" y="568.62894296" width="150.12470195555534" height="60.82971963259263" />
<rect id="hold_46" class="hold" x="2232.557498874074" y="647.6627710870371" width="54.44925482962981" height="139.6071055025925" />
<rect id="hold_47" class="hold" x="1440.5615789629633" y="906.2965957600001" width="124.98544468148134" height="82.28657648333319" />
<rect id="hold_48" class="hold" x="1444.0528887037035" y="1124.1038056296297" width="125.25591153333335" height="67.294246222222" />
<rect id="hold_49" class="hold" x="1642.8047592592593" y="893.8981921244446" width="67.47341395555532" height="90.58275803296294" />
<rect id="hold_50" class="hold" x="1348.7215407407407" y="1333.0094235259262" width="92.6660432592596" height="58.98032850370373" />
<rect id="hold_51" class="hold" x="1658.4343313999996" y="1845.942364448148" width="191.97705537777824" height="110.2813272259259" />
<rect id="hold_52" class="hold" x="1317.6082148148148" y="568.6213260355555" width="133.52499389629634" height="210.85977122296288" />
<rect id="hold_53" class="hold" x="2157.7678" y="384.20062799" width="99.34349999999995" height="187.5800396900002" />
<rect id="hold_54" class="hold" x="2149.2476896000003" y="895.5157606511111" width="94.70092585555494" height="91.72312174888884" />
<rect id="hold_55" class="hold" x="2045.5043666666666" y="1187.7533584" width="96.11813593333409" height="193.46591200000012" />
<rect id="hold_56" class="hold" x="1956.6752" y="1590.0129614925925" width="96.30968749999988" height="184.82555272222248" />
<rect id="hold_57" class="hold" x="2042.862460148148" y="2387.566556" width="97.98186411851862" height="185.2565119703704" />
<rect id="hold_58" class="hold" x="1650.7583513000002" y="2392.553613785185" width="182.39029815185154" height="186.462561677778" />
<rect id="hold_59" class="hold" x="1866.0019382222222" y="995.1221080800001" width="174.48375137777793" height="175.1820613088887" />
<rect id="hold_60" class="hold" x="2000.2443658888888" y="804.8631603674072" width="59.527896096296445" height="184.61998963259282" />
<rect id="hold_61" class="hold" x="1842.018982722222" y="1377.1308258000001" width="192.4174663148151" height="55.12053651111091" />
<rect id="hold_62" class="hold" x="1641.973564351852" y="1389.5462435" width="52.9314760629627" height="190.42572050000012" />
<rect id="hold_63" class="hold" x="1608.3130200888888" y="1648.2396984" width="65.40736876296273" height="149.3016069185187" />
<rect id="hold_64" class="hold" x="1713.9731615740743" y="1712.9441856296298" width="152.20230892592554" height="78.78565764814743" />
<rect id="hold_65" class="hold" x="1776.837784888889" y="1514.2246602814814" width="147.7532705111107" height="147.19452721851872" />
<rect id="hold_66" class="hold" x="1146.1373360000005" y="108.54362217999997" width="192.71617599999968" height="104.28099355148152" />
<rect id="hold_67" class="hold" x="1199.8697345185187" y="584.6258174814816" width="93.15026548148126" height="192.50824025703685" />
<rect id="hold_68" class="hold" x="1148.058725925926" y="970.2840519199999" width="192.26056511851834" height="95.93385965037032" />
<rect id="hold_69" class="hold" x="1152.8772930962964" y="1302.0341073074073" width="192.95584764444448" height="93.29287329259228" />
<rect id="hold_70" class="hold" x="1154.8809322962964" y="1435.0625314814815" width="191.4055919407408" height="119.30631450370356" />
<rect id="hold_71" class="hold" x="1217.8005021185186" y="2586.6587720000007" width="58.34969788148146" height="193.2197096" />
<rect id="hold_72" class="hold" x="574.38442625" y="708.85497461" width="146.16628639999988" height="143.40247932" />
<rect id="hold_73" class="hold" x="919.01270909" y="323.2895872025926" width="126.26047793222233" height="66.14896983703704" />
<rect id="hold_74" class="hold" x="758.1476222222223" y="282.88676753" width="135.60410631703712" height="107.19096423000002" />
<rect id="hold_75" class="hold" x="710.0764276103704" y="434.79021921000003" width="63.120414961481515" height="102.79874128999995" />
<rect id="hold_76" class="hold" x="699.1435202" y="1252.0053625000003" width="96.21463979999999" height="91.12795204814802" />
<rect id="hold_77" class="hold" x="1040.0343575" y="1189.1755336" width="102.9036609000002" height="66.09911760000023" />
<rect id="hold_78" class="hold" x="977.47164163" y="2190.7818728" width="70.51840450333316" height="122.81782720000001" />
<rect id="hold_79" class="hold" x="225.80435766814819" y="1887.3031001481481" width="63.68343726222221" height="102.30675905185217" />
<rect id="hold_80" class="hold" x="146.9868008537037" y="2492.0944005333336" width="91.44528338629632" height="91.93289946666664" />
<rect id="hold_81" class="hold" x="637.1304739855556" y="589.0713870133334" width="189.39964713444454" height="62.288914823703635" />
<rect id="hold_82" class="hold" x="842.2456486574074" y="455.1778233718519" width="145.04139093259244" height="135.3362850844444" />
<rect id="hold_83" class="hold" x="836.8873025392593" y="732.54883" width="186.44530023851848" height="59.39106783037039" />
<rect id="hold_84" class="hold" x="1043.9766536000002" y="990.1744220059261" width="86.98846968148109" height="142.6415887792591" />
<rect id="hold_85" class="hold" x="1064.8359" y="784.749335667037" width="183.16149999999993" height="179.23872832703705" />
<rect id="hold_86" class="hold" x="821.8210254814816" y="1016.9959722518518" width="93.31453810962955" height="176.92048624814856" />
<rect id="hold_87" class="hold" x="969.07696875" y="1512.5762898185185" width="164.91226218333338" height="80.46697314444441" />
<rect id="hold_88" class="hold" x="153.05913630814817" y="1657.2388279703703" width="92.74147759148144" height="139.98976616296295" />
<rect id="hold_89" class="hold" x="291.9234789300001" y="1588.5697362074077" width="149.23735971000008" height="107.56485684814811" />
<rect id="hold_90" class="hold" x="558.0619645985186" y="1192.9163817962963" width="88.35751830222205" height="138.62961820370379" />
<rect id="hold_91" class="hold" x="952.5195085185186" y="1390.0778333925925" width="90.00638303703693" height="68.11015509999993" />
<rect id="hold_92" class="hold" x="958.2015067325925" y="1259.092331674074" width="90.17819326740744" height="132.27555917777772" />
<rect id="hold_93" class="hold" x="310.40562426925925" y="980.0928842133334" width="131.25471586074082" height="90.65396992000012" />
<rect id="hold_94" class="hold" x="544.92092256" y="1940.7399400000002" width="103.64965618999997" height="139.37645534814806" />
<rect id="hold_95" class="hold" x="524.27624625" y="848.3335006933333" width="130.38032663000013" height="142.05196620444428" />
<rect id="hold_96" class="hold" x="961.3747423611113" y="1680.7856528259258" width="88.80307513888863" height="147.5212456740744" />
<rect id="hold_97" class="hold" x="842.5758383333334" y="1897.7334006814817" width="128.41770890814814" height="97.75821131851876" />
<rect id="hold_98" class="hold" x="1042.2915181407404" y="1993.7227397703703" width="87.0485213851855" height="163.217548411111" />
<rect id="hold_99" class="hold" x="1139.5449" y="1791.7734" width="106.3028776000001" height="239.7670499999997" />
<rect id="hold_100" class="hold" x="834.9289823259261" y="2392.5821032000003" width="154.69736349666653" height="101.86369679999962" />
<rect id="hold_101" class="hold" x="391.64418561777785" y="1910.9861525" width="116.84446738666662" height="83.17125870000041" />
<rect id="hold_102" class="hold" x="640.3082578799998" y="987.194430304074" width="197.66192860888907" height="61.35873219592611" />
<rect id="hold_103" class="hold" x="504.0605704096296" y="2192.443788888889" width="138.7935595785185" height="126.43869677037037" />
<rect id="hold_104" class="hold" x="442.80602272" y="2067.8991109296294" width="87.22446346296294" height="127.91128587037065" />
<rect id="hold_105" class="hold" x="1022.6212323" y="387.1919534014815" width="67.04388083703702" height="155.2555052737037" />
<rect id="hold_106" class="hold" x="845.8361362496296" y="158.51372296296296" width="201.15569575037034" height="114.46031853555553" />
<rect id="hold_107" class="hold" x="643.6238466666666" y="183.5679544444444" width="184.7278130333333" height="53.40357841555556" />
<rect id="hold_108" class="hold" x="274.5291836274074" y="167.89796008000002" width="171.7667776625927" height="101.42217739000006" />
<rect id="hold_109" class="hold" x="448.01181248" y="261.76206314666666" width="211.7763758785186" height="127.85577741333333" />
<rect id="hold_110" class="hold" x="33.24396331525926" y="1063.0118447703703" width="208.38865833288887" height="130.2775774518518" />
<rect id="hold_111" class="hold" x="260.03484798555553" y="1383.0907163555557" width="183.93911016259267" height="119.08141244444414" />
<rect id="hold_112" class="hold" x="60.99736710099999" y="2097.2207" width="184.66655731566664" height="115.31976153703727" />
<rect id="hold_113" class="hold" x="1049.5571635296294" y="1589.8635913259257" width="192.8952355703707" height="201.563690955556" />
<rect id="hold_114" class="hold" x="717.5037820000001" y="1994.8795576296297" width="133.10284783999975" height="213.09021737037028" />
<rect id="hold_115" class="hold" x="453.36722134888885" y="486.10624192074073" width="190.64475568814817" height="107.08941006296294" />
<rect id="hold_116" class="hold" x="335.1777836000001" y="597.4840294907408" width="193.96993973333326" height="194.34464656851856" />
<rect id="hold_117" class="hold" x="299.3736782407408" y="569.7537208562962" width="150.85245435888885" height="60.84510191703703" />
<rect id="hold_118" class="hold" x="203.90162653333337" y="648.7831637037037" width="54.41241346666661" height="139.596461774074" />
<rect id="hold_119" class="hold" x="921.2889911111112" y="907.4839165614815" width="125.01397678888895" height="82.24957391851865" />
<rect id="hold_120" class="hold" x="917.5364967300002" y="1125.256538888889" width="125.2600853144445" height="67.28982474444433" />
<rect id="hold_121" class="hold" x="776.568545144074" y="895.0251258874075" width="67.5309858633334" height="90.55961725037025" />
<rect id="hold_122" class="hold" x="1045.5258832000002" y="1334.1567635740741" width="92.58302103333313" height="58.99772546666668" />
<rect id="hold_123" class="hold" x="644.3908880177778" y="1849.0966576000003" width="192.0095859051852" height="110.26256479999961" />
<rect id="hold_124" class="hold" x="1043.7223144" y="569.7410142666666" width="133.53267946666688" height="210.93210077703702" />
<rect id="hold_125" class="hold" x="239.72880995370375" y="383.33252496" width="99.3607611529628" height="187.59360784" />
<rect id="hold_126" class="hold" x="242.91770999999997" y="892.6747684681482" width="94.68796751814816" height="91.68596013851845" />
<rect id="hold_127" class="hold" x="353.17549125" y="1188.8842459333332" width="96.24261789518516" height="186.90601620370353" />
<rect id="hold_128" class="hold" x="443.8693625499999" y="1591.1417" width="96.32249277407425" height="184.8889608999998" />
<rect id="hold_129" class="hold" x="354.00678258666676" y="2388.7366891296297" width="98.00090261333327" height="185.24061087037035" />
<rect id="hold_130" class="hold" x="663.6979817600001" y="2391.7053999000004" width="182.40626527703705" height="186.48694599629607" />
<rect id="hold_131" class="hold" x="450.3780803555556" y="994.275840892222" width="174.48802706666658" height="175.20722989666683" />
<rect id="hold_132" class="hold" x="435.05903755259254" y="786.0521545503703" width="59.544695496296356" height="184.5795053459259" />
<rect id="hold_133" class="hold" x="452.4083102844444" y="1378.284214351852" width="192.45860482296303" height="55.157564522222174" />
<rect id="hold_134" class="hold" x="799.9393244562964" y="1388.640468322222" width="52.99080383074079" height="190.51462117777828" />
<rect id="hold_135" class="hold" x="813.2469355200001" y="1649.3804049444443" width="65.29359730999988" height="149.31556912963015" />
<rect id="hold_136" class="hold" x="620.6473681540741" y="1714.1084532407408" width="152.2142736740741" height="78.76295555925981" />
<rect id="hold_137" class="hold" x="1171.1913216" y="313.7555870774073" width="152.32243854074045" height="145.12140965444462" />
<rect id="hold_138" class="hold" x="1169.779480922222" y="1114.8640562407406" width="152.30525337777794" height="147.14716600740712" />
<rect id="hold_139" class="hold" x="1172.7706996777777" y="2123.0065063" width="151.25978604074112" height="148.68271026296316" />
<rect id="hold_140" class="hold" x="572.246819285926" y="1519.3930464000002" width="149.7482022429631" height="147.1705899000001" />
<rect id="hold_141" class="hold" x="1146.0887587962964" y="2388.698322222222" width="189.50830973703705" height="85.40084537777784" />


</svg>
